<?xml version="1.0" encoding="UTF-8"?>
<svg version="1.1" xmlns="http://www.w3.org/2000/svg" width="1224" height="816">
<path d="M0 0 C14.52 0 29.04 0 44 0 C44 0.66 44 1.32 44 2 C45.98 2 47.96 2 50 2 C50 2.66 50 3.32 50 4 C50.66 4 51.32 4 52 4 C52 4.66 52 5.32 52 6 C52.66 6 53.32 6 54 6 C54 7.32 54 8.64 54 10 C54.66 10 55.32 10 56 10 C56 13.3 56 16.6 56 20 C55.34 20 54.68 20 54 20 C54 21.98 54 23.96 54 26 C53.34 26 52.68 26 52 26 C52 26.66 52 27.32 52 28 C51.34 28 50.68 28 50 28 C50 28.66 50 29.32 50 30 C48.68 30 47.36 30 46 30 C46 31.32 46 32.64 46 34 C47.32 34 48.64 34 50 34 C50 35.32 50 36.64 50 38 C50.66 38 51.32 38 52 38 C52 38.66 52 39.32 52 40 C53.32 40 54.64 40 56 40 C56 40.66 56 41.32 56 42 C56.66 42 57.32 42 58 42 C58 40.68 58 39.36 58 38 C58.66 38 59.32 38 60 38 C60 37.34 60 36.68 60 36 C60.66 36 61.32 36 62 36 C62 35.34 62 34.68 62 34 C62.66 34 63.32 34 64 34 C64 32.02 64 30.04 64 28 C64.66 28 65.32 28 66 28 C66 27.34 66 26.68 66 26 C66.66 26 67.32 26 68 26 C68 25.34 68 24.68 68 24 C68.66 24 69.32 24 70 24 C70 23.34 70 22.68 70 22 C70.66 22 71.32 22 72 22 C72 20.02 72 18.04 72 16 C72.66 16 73.32 16 74 16 C74 15.34 74 14.68 74 14 C74.66 14 75.32 14 76 14 C76 12.68 76 11.36 76 10 C77.32 10 78.64 10 80 10 C80 8.02 80 6.04 80 4 C80.66 4 81.32 4 82 4 C82 3.34 82 2.68 82 2 C82.66 2 83.32 2 84 2 C84 1.34 84 0.68 84 0 C87.96 0 91.92 0 96 0 C96 0.66 96 1.32 96 2 C97.32 2 98.64 2 100 2 C100 2.66 100 3.32 100 4 C100.66 4 101.32 4 102 4 C102 5.32 102 6.64 102 8 C102.66 8 103.32 8 104 8 C104 9.32 104 10.64 104 12 C104.66 12 105.32 12 106 12 C106 13.32 106 14.64 106 16 C106.66 16 107.32 16 108 16 C108 16.66 108 17.32 108 18 C108.66 18 109.32 18 110 18 C110 18.66 110 19.32 110 20 C110.66 20 111.32 20 112 20 C112 21.98 112 23.96 112 26 C112.66 26 113.32 26 114 26 C114 26.66 114 27.32 114 28 C114.66 28 115.32 28 116 28 C116 28.66 116 29.32 116 30 C116.66 30 117.32 30 118 30 C118 31.32 118 32.64 118 34 C118.66 34 119.32 34 120 34 C120 35.32 120 36.64 120 38 C120.66 38 121.32 38 122 38 C122 38.66 122 39.32 122 40 C122.66 40 123.32 40 124 40 C124 41.32 124 42.64 124 44 C119.38 44 114.76 44 110 44 C110 43.34 110 42.68 110 42 C109.34 42 108.68 42 108 42 C108 41.34 108 40.68 108 40 C107.34 40 106.68 40 106 40 C106 39.34 106 38.68 106 38 C105.34 38 104.68 38 104 38 C104 37.34 104 36.68 104 36 C94.76 36 85.52 36 76 36 C76 36.66 76 37.32 76 38 C75.34 38 74.68 38 74 38 C74 39.98 74 41.96 74 44 C62.78 44 51.56 44 40 44 C40 43.34 40 42.68 40 42 C38.68 42 37.36 42 36 42 C36 41.34 36 40.68 36 40 C35.34 40 34.68 40 34 40 C34 39.34 34 38.68 34 38 C33.34 38 32.68 38 32 38 C32 36.68 32 35.36 32 34 C30.68 34 29.36 34 28 34 C28 33.34 28 32.68 28 32 C22.72 32 17.44 32 12 32 C12 35.96 12 39.92 12 44 C8.04 44 4.08 44 0 44 C0 29.48 0 14.96 0 0 Z M12 12 C12 14.64 12 17.28 12 20 C21.24 20 30.48 20 40 20 C40 19.34 40 18.68 40 18 C40.66 18 41.32 18 42 18 C42 16.68 42 15.36 42 14 C41.34 14 40.68 14 40 14 C40 13.34 40 12.68 40 12 C30.76 12 21.52 12 12 12 Z M90 14 C90 15.32 90 16.64 90 18 C89.34 18 88.68 18 88 18 C88 18.66 88 19.32 88 20 C87.34 20 86.68 20 86 20 C86 21.32 86 22.64 86 24 C85.34 24 84.68 24 84 24 C84 24.66 84 25.32 84 26 C88.62 26 93.24 26 98 26 C98 25.34 98 24.68 98 24 C97.34 24 96.68 24 96 24 C96 22.68 96 21.36 96 20 C95.34 20 94.68 20 94 20 C94 19.34 94 18.68 94 18 C93.34 18 92.68 18 92 18 C92 16.68 92 15.36 92 14 C91.34 14 90.68 14 90 14 Z " fill="#D9D9DA" transform="translate(602,374)"/>
<path d="M0 0 C13.86 0 27.72 0 42 0 C42 0.66 42 1.32 42 2 C42.66 2 43.32 2 44 2 C44 3.98 44 5.96 44 8 C44.66 8 45.32 8 46 8 C46 8.66 46 9.32 46 10 C45.34 10 44.68 10 44 10 C44 10.66 44 11.32 44 12 C42.02 12 40.04 12 38 12 C38 12.66 38 13.32 38 14 C28.76 14 19.52 14 10 14 C10 14.66 10 15.32 10 16 C20.56 16 31.12 16 42 16 C42 17.32 42 18.64 42 20 C42.66 20 43.32 20 44 20 C44 21.98 44 23.96 44 26 C43.34 26 42.68 26 42 26 C42 26.66 42 27.32 42 28 C32.76 28 23.52 28 14 28 C14 29.32 14 30.64 14 32 C24.56 32 35.12 32 46 32 C46 34.64 46 37.28 46 40 C45.34 40 44.68 40 44 40 C44 41.32 44 42.64 44 44 C34.76 44 25.52 44 16 44 C16 44.66 16 45.32 16 46 C14.02 46 12.04 46 10 46 C10 45.34 10 44.68 10 44 C6.04 44 2.08 44 -2 44 C-2 43.34 -2 42.68 -2 42 C-3.32 42 -4.64 42 -6 42 C-6 29.46 -6 16.92 -6 4 C-5.34 4 -4.68 4 -4 4 C-4 3.34 -4 2.68 -4 2 C-2.68 2 -1.36 2 0 2 C0 1.34 0 0.68 0 0 Z M8 28 C8 28.66 8 29.32 8 30 C8.66 30 9.32 30 10 30 C10 30.66 10 31.32 10 32 C10.66 32 11.32 32 12 32 C12 30.68 12 29.36 12 28 C10.68 28 9.36 28 8 28 Z " fill="#04CFEF" transform="translate(798,374)"/>
<path d="M0 0 C17.16 0 34.32 0 52 0 C52 0.66 52 1.32 52 2 C52.66 2 53.32 2 54 2 C54 5.3 54 8.6 54 12 C40.8 12 27.6 12 14 12 C14 13.98 14 15.96 14 18 C25.88 18 37.76 18 50 18 C50 21.3 50 24.6 50 28 C38.12 28 26.24 28 14 28 C14 29.98 14 31.96 14 34 C27.2 34 40.4 34 54 34 C54 34.66 54 35.32 54 36 C54.66 36 55.32 36 56 36 C56 37.98 56 39.96 56 42 C55.34 42 54.68 42 54 42 C54 42.66 54 43.32 54 44 C35.52 44 17.04 44 -2 44 C-2 30.14 -2 16.28 -2 2 C-1.34 2 -0.68 2 0 2 C0 1.34 0 0.68 0 0 Z " fill="#FBFBFB" transform="translate(346,374)"/>
<path d="M0 0 C1.98 0 3.96 0 6 0 C6 1.98 6 3.96 6 6 C7.32 6 8.64 6 10 6 C10 5.34 10 4.68 10 4 C23.2 4 36.4 4 50 4 C50 4.66 50 5.32 50 6 C50.66 6 51.32 6 52 6 C52 8.64 52 11.28 52 14 C50.68 14 49.36 14 48 14 C48 14.66 48 15.32 48 16 C46.68 16 45.36 16 44 16 C44 16.66 44 17.32 44 18 C43.34 18 42.68 18 42 18 C42 18.66 42 19.32 42 20 C41.34 20 40.68 20 40 20 C40 20.66 40 21.32 40 22 C38.68 22 37.36 22 36 22 C36 22.66 36 23.32 36 24 C35.34 24 34.68 24 34 24 C34 24.66 34 25.32 34 26 C33.34 26 32.68 26 32 26 C32 26.66 32 27.32 32 28 C30.68 28 29.36 28 28 28 C28 28.66 28 29.32 28 30 C27.34 30 26.68 30 26 30 C26 30.66 26 31.32 26 32 C24.68 32 23.36 32 22 32 C22 32.66 22 33.32 22 34 C21.34 34 20.68 34 20 34 C20 34.66 20 35.32 20 36 C19.34 36 18.68 36 18 36 C18 36.66 18 37.32 18 38 C29.22 38 40.44 38 52 38 C52 41.3 52 44.6 52 48 C32.2 48 12.4 48 -8 48 C-8 44.7 -8 41.4 -8 38 C-6.68 38 -5.36 38 -4 38 C-4 37.34 -4 36.68 -4 36 C-3.34 36 -2.68 36 -2 36 C-2 35.34 -2 34.68 -2 34 C-0.68 34 0.64 34 2 34 C2 33.34 2 32.68 2 32 C2.66 32 3.32 32 4 32 C4 31.34 4 30.68 4 30 C5.32 30 6.64 30 8 30 C8 29.34 8 28.68 8 28 C8.66 28 9.32 28 10 28 C10 27.34 10 26.68 10 26 C10.66 26 11.32 26 12 26 C12 25.34 12 24.68 12 24 C12.66 24 13.32 24 14 24 C14 23.34 14 22.68 14 22 C15.98 22 17.96 22 20 22 C20 20.68 20 19.36 20 18 C21.32 18 22.64 18 24 18 C24 17.34 24 16.68 24 16 C14.76 16 5.52 16 -4 16 C-4 16.66 -4 17.32 -4 18 C-6.64 18 -9.28 18 -12 18 C-12 17.34 -12 16.68 -12 16 C-12.66 16 -13.32 16 -14 16 C-14 15.34 -14 14.68 -14 14 C-14.66 14 -15.32 14 -16 14 C-16 12.68 -16 11.36 -16 10 C-15.34 10 -14.68 10 -14 10 C-14 9.34 -14 8.68 -14 8 C-12.68 8 -11.36 8 -10 8 C-10 7.34 -10 6.68 -10 6 C-8.68 6 -7.36 6 -6 6 C-6 5.34 -6 4.68 -6 4 C-5.34 4 -4.68 4 -4 4 C-4 3.34 -4 2.68 -4 2 C-2.68 2 -1.36 2 0 2 C0 1.34 0 0.68 0 0 Z " fill="#E2E1E3" transform="translate(286,370)"/>
<path d="M0 0 C3.96 0 7.92 0 12 0 C12 0.66 12 1.32 12 2 C13.32 2 14.64 2 16 2 C16 2.66 16 3.32 16 4 C16.66 4 17.32 4 18 4 C18 4.66 18 5.32 18 6 C18.66 6 19.32 6 20 6 C20 6.66 20 7.32 20 8 C20.66 8 21.32 8 22 8 C22 8.66 22 9.32 22 10 C23.32 10 24.64 10 26 10 C26 10.66 26 11.32 26 12 C26.66 12 27.32 12 28 12 C28 12.66 28 13.32 28 14 C28.66 14 29.32 14 30 14 C30 14.66 30 15.32 30 16 C30.66 16 31.32 16 32 16 C32 16.66 32 17.32 32 18 C32.66 18 33.32 18 34 18 C34 18.66 34 19.32 34 20 C35.32 20 36.64 20 38 20 C38 20.66 38 21.32 38 22 C38.66 22 39.32 22 40 22 C40 23.32 40 24.64 40 26 C41.98 26 43.96 26 46 26 C46 17.42 46 8.84 46 0 C49.3 0 52.6 0 56 0 C56 0.66 56 1.32 56 2 C56.66 2 57.32 2 58 2 C58 15.86 58 29.72 58 44 C53.38 44 48.76 44 44 44 C44 43.34 44 42.68 44 42 C42.68 42 41.36 42 40 42 C40 41.34 40 40.68 40 40 C39.34 40 38.68 40 38 40 C38 38.68 38 37.36 38 36 C36.68 36 35.36 36 34 36 C34 35.34 34 34.68 34 34 C32.68 34 31.36 34 30 34 C30 32.68 30 31.36 30 30 C28.68 30 27.36 30 26 30 C26 29.34 26 28.68 26 28 C25.34 28 24.68 28 24 28 C24 27.34 24 26.68 24 26 C23.34 26 22.68 26 22 26 C22 25.34 22 24.68 22 24 C21.34 24 20.68 24 20 24 C20 23.34 20 22.68 20 22 C19.34 22 18.68 22 18 22 C18 21.34 18 20.68 18 20 C16.68 20 15.36 20 14 20 C14 27.92 14 35.84 14 44 C9.38 44 4.76 44 0 44 C0 29.48 0 14.96 0 0 Z " fill="#E5E5E6" transform="translate(408,374)"/>
<path d="M0 0 C0.66 0 1.32 0 2 0 C2 0.66 2 1.32 2 2 C3.32 2 4.64 2 6 2 C6 3.32 6 4.64 6 6 C6.66 6 7.32 6 8 6 C8 9.96 8 13.92 8 18 C7.34 18 6.68 18 6 18 C6 18.66 6 19.32 6 20 C7.32 20 8.64 20 10 20 C10 19.34 10 18.68 10 18 C11.98 18 13.96 18 16 18 C16 18.66 16 19.32 16 20 C19.96 20 23.92 20 28 20 C28 19.34 28 18.68 28 18 C29.32 18 30.64 18 32 18 C32 14.7 32 11.4 32 8 C32.66 8 33.32 8 34 8 C34 6.02 34 4.04 34 2 C38.62 2 43.24 2 48 2 C48 17.18 48 32.36 48 48 C47.34 48 46.68 48 46 48 C46 47.34 46 46.68 46 46 C44.02 46 42.04 46 40 46 C40 46.66 40 47.32 40 48 C38.68 48 37.36 48 36 48 C36 47.34 36 46.68 36 46 C35.34 46 34.68 46 34 46 C34 44.68 34 43.36 34 42 C33.34 42 32.68 42 32 42 C32 38.04 32 34.08 32 30 C23.42 30 14.84 30 6 30 C6 31.32 6 32.64 6 34 C6.66 34 7.32 34 8 34 C8 36.64 8 39.28 8 42 C7.34 42 6.68 42 6 42 C6 43.32 6 44.64 6 46 C1.38 46 -3.24 46 -8 46 C-8 31.48 -8 16.96 -8 2 C-5.36 2 -2.72 2 0 2 C0 1.34 0 0.68 0 0 Z " fill="#04CFF1" transform="translate(908,372)"/>
<path d="M0 0 C13.2 0 26.4 0 40 0 C40 0.66 40 1.32 40 2 C40.66 2 41.32 2 42 2 C42 4.64 42 7.28 42 10 C41.34 10 40.68 10 40 10 C40 10.66 40 11.32 40 12 C31.42 12 22.84 12 14 12 C14 12.66 14 13.32 14 14 C11.36 14 8.72 14 6 14 C6 20.6 6 27.2 6 34 C17.88 34 29.76 34 42 34 C42 35.32 42 36.64 42 38 C41.34 38 40.68 38 40 38 C40 39.98 40 41.96 40 44 C32.08 44 24.16 44 16 44 C16 44.66 16 45.32 16 46 C12.7 46 9.4 46 6 46 C6 45.34 6 44.68 6 44 C3.36 44 0.72 44 -2 44 C-2 43.34 -2 42.68 -2 42 C-3.98 42 -5.96 42 -8 42 C-8 41.34 -8 40.68 -8 40 C-8.66 40 -9.32 40 -10 40 C-10 28.78 -10 17.56 -10 6 C-9.34 6 -8.68 6 -8 6 C-8 5.34 -8 4.68 -8 4 C-7.34 4 -6.68 4 -6 4 C-6 3.34 -6 2.68 -6 2 C-4.02 2 -2.04 2 0 2 C0 1.34 0 0.68 0 0 Z " fill="#05D0F0" transform="translate(856,374)"/>
<path d="M0 0 C4.62 0 9.24 0 14 0 C14 0.66 14 1.32 14 2 C14.66 2 15.32 2 16 2 C16 2.66 16 3.32 16 4 C16.66 4 17.32 4 18 4 C18 5.32 18 6.64 18 8 C18.66 8 19.32 8 20 8 C20 8.66 20 9.32 20 10 C20.66 10 21.32 10 22 10 C22 11.32 22 12.64 22 14 C22.66 14 23.32 14 24 14 C24 15.32 24 16.64 24 18 C24.66 18 25.32 18 26 18 C26 19.32 26 20.64 26 22 C26.66 22 27.32 22 28 22 C28 23.32 28 24.64 28 26 C29.32 26 30.64 26 32 26 C32 27.98 32 29.96 32 32 C32.66 32 33.32 32 34 32 C34 30.68 34 29.36 34 28 C34.66 28 35.32 28 36 28 C36 27.34 36 26.68 36 26 C36.66 26 37.32 26 38 26 C38 25.34 38 24.68 38 24 C38.66 24 39.32 24 40 24 C40 22.02 40 20.04 40 18 C40.66 18 41.32 18 42 18 C42 17.34 42 16.68 42 16 C42.66 16 43.32 16 44 16 C44 14.68 44 13.36 44 12 C44.66 12 45.32 12 46 12 C46 11.34 46 10.68 46 10 C46.66 10 47.32 10 48 10 C48 8.02 48 6.04 48 4 C48.66 4 49.32 4 50 4 C50 3.34 50 2.68 50 2 C50.66 2 51.32 2 52 2 C52 1.34 52 0.68 52 0 C56.62 0 61.24 0 66 0 C66 1.32 66 2.64 66 4 C65.34 4 64.68 4 64 4 C64 5.98 64 7.96 64 10 C63.34 10 62.68 10 62 10 C62 10.66 62 11.32 62 12 C61.34 12 60.68 12 60 12 C60 13.32 60 14.64 60 16 C59.34 16 58.68 16 58 16 C58 16.66 58 17.32 58 18 C57.34 18 56.68 18 56 18 C56 19.32 56 20.64 56 22 C55.34 22 54.68 22 54 22 C54 23.32 54 24.64 54 26 C53.34 26 52.68 26 52 26 C52 26.66 52 27.32 52 28 C51.34 28 50.68 28 50 28 C50 28.66 50 29.32 50 30 C49.34 30 48.68 30 48 30 C48 31.32 48 32.64 48 34 C47.34 34 46.68 34 46 34 C46 35.32 46 36.64 46 38 C45.34 38 44.68 38 44 38 C44 38.66 44 39.32 44 40 C43.34 40 42.68 40 42 40 C42 40.66 42 41.32 42 42 C41.34 42 40.68 42 40 42 C40 42.66 40 43.32 40 44 C34.72 44 29.44 44 24 44 C24 42.02 24 40.04 24 38 C23.34 38 22.68 38 22 38 C22 37.34 22 36.68 22 36 C21.34 36 20.68 36 20 36 C20 35.34 20 34.68 20 34 C19.34 34 18.68 34 18 34 C18 33.34 18 32.68 18 32 C17.34 32 16.68 32 16 32 C16 30.02 16 28.04 16 26 C15.34 26 14.68 26 14 26 C14 25.34 14 24.68 14 24 C13.34 24 12.68 24 12 24 C12 22.68 12 21.36 12 20 C11.34 20 10.68 20 10 20 C10 19.34 10 18.68 10 18 C9.34 18 8.68 18 8 18 C8 16.68 8 15.36 8 14 C7.34 14 6.68 14 6 14 C6 13.34 6 12.68 6 12 C5.34 12 4.68 12 4 12 C4 10.68 4 9.36 4 8 C3.34 8 2.68 8 2 8 C2 7.34 2 6.68 2 6 C1.34 6 0.68 6 0 6 C0 4.02 0 2.04 0 0 Z " fill="#CDCDCE" transform="translate(470,374)"/>
<path d="M0 0 C0.66 0 1.32 0 2 0 C2 0.66 2 1.32 2 2 C16.52 2 31.04 2 46 2 C46 2.66 46 3.32 46 4 C46.66 4 47.32 4 48 4 C48 7.3 48 10.6 48 14 C43.38 14 38.76 14 34 14 C34 14.66 34 15.32 34 16 C32.02 16 30.04 16 28 16 C28 25.9 28 35.8 28 46 C26.02 46 24.04 46 22 46 C22 46.66 22 47.32 22 48 C20.02 48 18.04 48 16 48 C16 47.34 16 46.68 16 46 C15.34 46 14.68 46 14 46 C14 36.1 14 26.2 14 16 C13.34 16 12.68 16 12 16 C12 15.34 12 14.68 12 14 C6.06 14 0.12 14 -6 14 C-6 10.04 -6 6.08 -6 2 C-4.02 2 -2.04 2 0 2 C0 1.34 0 0.68 0 0 Z " fill="#07D1F1" transform="translate(742,372)"/>
<path d="M0 0 C4.62 0 9.24 0 14 0 C14 0.66 14 1.32 14 2 C14.66 2 15.32 2 16 2 C16 2.66 16 3.32 16 4 C16.66 4 17.32 4 18 4 C18 4.66 18 5.32 18 6 C18.66 6 19.32 6 20 6 C20 7.32 20 8.64 20 10 C21.32 10 22.64 10 24 10 C24 10.66 24 11.32 24 12 C24.66 12 25.32 12 26 12 C26 12.66 26 13.32 26 14 C26.66 14 27.32 14 28 14 C28 15.32 28 16.64 28 18 C28.66 18 29.32 18 30 18 C30 17.34 30 16.68 30 16 C30.66 16 31.32 16 32 16 C32 15.34 32 14.68 32 14 C32.66 14 33.32 14 34 14 C34 12.68 34 11.36 34 10 C35.32 10 36.64 10 38 10 C38 9.34 38 8.68 38 8 C38.66 8 39.32 8 40 8 C40 7.34 40 6.68 40 6 C40.66 6 41.32 6 42 6 C42 4.68 42 3.36 42 2 C43.32 2 44.64 2 46 2 C46 1.34 46 0.68 46 0 C48.64 0 51.28 0 54 0 C54 0.66 54 1.32 54 2 C55.98 2 57.96 2 60 2 C60 2.66 60 3.32 60 4 C59.34 4 58.68 4 58 4 C58 4.66 58 5.32 58 6 C57.34 6 56.68 6 56 6 C56 7.32 56 8.64 56 10 C55.34 10 54.68 10 54 10 C54 10.66 54 11.32 54 12 C53.34 12 52.68 12 52 12 C52 12.66 52 13.32 52 14 C51.34 14 50.68 14 50 14 C50 14.66 50 15.32 50 16 C49.34 16 48.68 16 48 16 C48 16.66 48 17.32 48 18 C47.34 18 46.68 18 46 18 C46 18.66 46 19.32 46 20 C45.34 20 44.68 20 44 20 C44 20.66 44 21.32 44 22 C43.34 22 42.68 22 42 22 C42 22.66 42 23.32 42 24 C41.34 24 40.68 24 40 24 C40 24.66 40 25.32 40 26 C39.34 26 38.68 26 38 26 C38 26.66 38 27.32 38 28 C37.34 28 36.68 28 36 28 C36 33.28 36 38.56 36 44 C31.38 44 26.76 44 22 44 C22 38.06 22 32.12 22 26 C20.68 26 19.36 26 18 26 C18 24.68 18 23.36 18 22 C17.34 22 16.68 22 16 22 C16 21.34 16 20.68 16 20 C14.68 20 13.36 20 12 20 C12 19.34 12 18.68 12 18 C11.34 18 10.68 18 10 18 C10 16.68 10 15.36 10 14 C9.34 14 8.68 14 8 14 C8 13.34 8 12.68 8 12 C7.34 12 6.68 12 6 12 C6 11.34 6 10.68 6 10 C5.34 10 4.68 10 4 10 C4 9.34 4 8.68 4 8 C3.34 8 2.68 8 2 8 C2 6.68 2 5.36 2 4 C1.34 4 0.68 4 0 4 C0 2.68 0 1.36 0 0 Z " fill="#D0D0D1" transform="translate(538,374)"/>
<path d="M0 0 C13.86 0 27.72 0 42 0 C42 0.66 42 1.32 42 2 C42.66 2 43.32 2 44 2 C44 3.98 44 5.96 44 8 C44.66 8 45.32 8 46 8 C46 8.66 46 9.32 46 10 C45.34 10 44.68 10 44 10 C44 10.66 44 11.32 44 12 C42.02 12 40.04 12 38 12 C38 12.66 38 13.32 38 14 C28.76 14 19.52 14 10 14 C10 14.66 10 15.32 10 16 C20.56 16 31.12 16 42 16 C42 17.32 42 18.64 42 20 C42.66 20 43.32 20 44 20 C44 21.98 44 23.96 44 26 C43.34 26 42.68 26 42 26 C42 26.66 42 27.32 42 28 C32.76 28 23.52 28 14 28 C14 29.32 14 30.64 14 32 C24.56 32 35.12 32 46 32 C46 34.64 46 37.28 46 40 C45.34 40 44.68 40 44 40 C44 41.32 44 42.64 44 44 C34.76 44 25.52 44 16 44 C16 44.66 16 45.32 16 46 C14.02 46 12.04 46 10 46 C10 45.34 10 44.68 10 44 C6.04 44 2.08 44 -2 44 C-2 43.34 -2 42.68 -2 42 C-3.32 42 -4.64 42 -6 42 C-6 29.46 -6 16.92 -6 4 C-5.34 4 -4.68 4 -4 4 C-4 3.34 -4 2.68 -4 2 C-2.68 2 -1.36 2 0 2 C0 1.34 0 0.68 0 0 Z M-3 4 C-4.68377169 10.78319454 -4.10981249 17.99712145 -4.0625 24.9375 C-4.05798828 26.19369141 -4.05347656 27.44988281 -4.04882812 28.74414062 C-4.03709681 31.82947663 -4.020681 34.91471316 -4 38 C1.53546797 41.71559439 5.36109293 42.57169004 11.9609375 42.42578125 C12.7921109 42.42249313 13.6232843 42.41920502 14.47964478 42.41581726 C16.22267584 42.40545367 17.96567403 42.38560189 19.70849609 42.35668945 C22.38788633 42.31228645 25.06637967 42.29519892 27.74609375 42.28320312 C29.4427214 42.26979148 31.13933796 42.25487196 32.8359375 42.23828125 C33.64002045 42.23089432 34.44410339 42.22350739 35.27255249 42.21589661 C38.9383366 42.49308079 38.9383366 42.49308079 42 41 C42 39.02 42 37.04 42 35 C30.12 35 18.24 35 6 35 C6 33.35 6 31.7 6 30 C5.70955086 28.65667272 5.39044206 27.31774196 5 26 C12.93768131 25.02845529 20.68742824 24.942954 28.671875 25.12695312 C30.00605469 25.14338867 30.00605469 25.14338867 31.3671875 25.16015625 C32.16237793 25.17699463 32.95756836 25.19383301 33.77685547 25.21118164 C36.25644239 24.97563994 37.8587833 24.23931398 40 23 C38.85217909 21.39059769 38.85217909 21.39059769 37 20 C34.28988538 19.67461574 34.28988538 19.67461574 31.375 19.875 C29.58423621 19.94550251 27.79214159 19.99416241 26 20 C25.67 19.67 25.34 19.34 25 19 C21.08830341 18.7252114 17.21188837 18.74030964 13.375 19.5625 C10.10700642 20.16449882 7.24706278 19.57301108 4 19 C4.875 12.125 4.875 12.125 6 11 C8.73894085 10.91141354 11.4525327 10.88476521 14.19140625 10.90234375 C15.01124496 10.9037587 15.83108368 10.90517365 16.67576599 10.90663147 C19.30471382 10.91224711 21.93357773 10.92480221 24.5625 10.9375 C26.34049357 10.94251299 28.11848846 10.94707624 29.89648438 10.95117188 C34.26435545 10.96222161 38.63216348 10.97949669 43 11 C43 9.35 43 7.7 43 6 C42.01 5.67 41.02 5.34 40 5 C40.33 4.01 40.66 3.02 41 2 C35.21591441 1.9505991 29.43195136 1.91428 23.64770508 1.89013672 C21.67958436 1.88007293 19.71147862 1.86642066 17.7434082 1.84912109 C14.91614082 1.82488941 12.08907095 1.81352077 9.26171875 1.8046875 C7.93970711 1.78920364 7.93970711 1.78920364 6.59098816 1.77340698 C5.77036392 1.77325592 4.94973969 1.77310486 4.10424805 1.77294922 C3.38254929 1.768508 2.66085052 1.76406677 1.9172821 1.75949097 C-0.32828931 1.89615353 -0.32828931 1.89615353 -3 4 Z M8 28 C8 28.66 8 29.32 8 30 C8.66 30 9.32 30 10 30 C10 30.66 10 31.32 10 32 C10.66 32 11.32 32 12 32 C12 30.68 12 29.36 12 28 C10.68 28 9.36 28 8 28 Z " fill="#0EC8E2" transform="translate(798,374)"/>
<path d="M0 0 C1.32 0.33 2.64 0.66 4 1 C3.01 1.33 2.02 1.66 1 2 C1.185625 2.78375 1.37125 3.5675 1.5625 4.375 C2 7 2 7 1 9 C0.84588894 11.0307477 0.75017547 13.06606421 0.68359375 15.1015625 C0.64169922 16.31328125 0.59980469 17.525 0.55664062 18.7734375 C0.51732422 20.04445313 0.47800781 21.31546875 0.4375 22.625 C0.39431641 23.90375 0.35113281 25.1825 0.30664062 26.5 C0.20030114 29.66655348 0.09827167 32.83318753 0 36 C5.31754099 38.75045223 9.68409534 39.13512242 15.60546875 39.09765625 C16.44467361 39.0962413 17.28387848 39.09482635 18.14851379 39.09336853 C20.82821216 39.08777215 23.5078269 39.07522035 26.1875 39.0625 C28.00455608 39.05748453 29.82161348 39.05292171 31.63867188 39.04882812 C36.09248013 39.03780391 40.54622589 39.02054178 45 39 C45.33 37.02 45.66 35.04 46 33 C45.01604248 33.03552979 44.03208496 33.07105957 43.01831055 33.10766602 C39.36761039 33.23803909 35.71669633 33.36119756 32.06567383 33.48217773 C30.48552796 33.53554679 28.90544689 33.59087216 27.32543945 33.64819336 C25.05434137 33.73024686 22.78310314 33.80526189 20.51171875 33.87890625 C19.80536789 33.90594131 19.09901703 33.93297638 18.3712616 33.96083069 C15.26132061 34.05545931 12.98120616 33.99373539 10 33 C9.505 31.515 9.505 31.515 9 30 C9.33 29.34 9.66 28.68 10 28 C9.34 27.67 8.68 27.34 8 27 C8.33 26.01 8.66 25.02 9 24 C20.55 24.33 32.1 24.66 44 25 C44.33 22.36 44.66 19.72 45 17 C45.99 17.33 46.98 17.66 48 18 C48 19.98 48 21.96 48 24 C47.34 24 46.68 24 46 24 C46 24.66 46 25.32 46 26 C36.76 26 27.52 26 18 26 C18 27.32 18 28.64 18 30 C28.56 30 39.12 30 50 30 C50 32.64 50 35.28 50 38 C49.34 38 48.68 38 48 38 C48 39.32 48 40.64 48 42 C38.76 42 29.52 42 20 42 C20 42.66 20 43.32 20 44 C18.02 44 16.04 44 14 44 C14 43.34 14 42.68 14 42 C10.04 42 6.08 42 2 42 C2 41.34 2 40.68 2 40 C0.68 40 -0.64 40 -2 40 C-2 27.46 -2 14.92 -2 2 C-1.34 2 -0.68 2 0 2 C0 1.34 0 0.68 0 0 Z M12 26 C12 26.66 12 27.32 12 28 C12.66 28 13.32 28 14 28 C14 28.66 14 29.32 14 30 C14.66 30 15.32 30 16 30 C16 28.68 16 27.36 16 26 C14.68 26 13.36 26 12 26 Z " fill="#1EBFDE" transform="translate(794,376)"/>
<path d="M0 0 C13.2 0 26.4 0 40 0 C40 0.66 40 1.32 40 2 C40.66 2 41.32 2 42 2 C42 4.64 42 7.28 42 10 C41.34 10 40.68 10 40 10 C40 10.66 40 11.32 40 12 C31.42 12 22.84 12 14 12 C14 12.66 14 13.32 14 14 C11.36 14 8.72 14 6 14 C6 20.27 6 26.54 6 33 C4 31 4 31 3.77294922 29.12060547 C3.78865967 28.00516357 3.78865967 28.00516357 3.8046875 26.8671875 C3.81435547 25.65869141 3.81435547 25.65869141 3.82421875 24.42578125 C3.84097656 23.58402344 3.85773437 22.74226563 3.875 21.875 C3.88402344 21.02550781 3.89304687 20.17601562 3.90234375 19.30078125 C3.92594353 17.20040116 3.96181517 15.10016556 4 13 C6.64 13 9.28 13 12 13 C12 12.34 12 11.68 12 11 C20.91 10.67 29.82 10.34 39 10 C39 7.36 39 4.72 39 2 C27.78 2.33 16.56 2.66 5 3 C4.67 3.66 4.34 4.32 4 5 C2.2578125 5.59765625 2.2578125 5.59765625 0.125 6.0625 C-2.32745241 6.61000321 -4.60711639 7.20237213 -7 8 C-7 17.9 -7 27.8 -7 38 C-3.38313572 39.80843214 0.77471284 39.95101887 4.75 40.5 C6.20140381 40.7007312 6.20140381 40.7007312 7.68212891 40.90551758 C18.09216898 42.26404207 28.5125531 42.72256242 39 43 C39 41.35 39 39.7 39 38 C39.33 38 39.66 38 40 38 C40 39.98 40 41.96 40 44 C32.08 44 24.16 44 16 44 C16 44.66 16 45.32 16 46 C12.7 46 9.4 46 6 46 C6 45.34 6 44.68 6 44 C3.36 44 0.72 44 -2 44 C-2 43.34 -2 42.68 -2 42 C-3.98 42 -5.96 42 -8 42 C-8 41.34 -8 40.68 -8 40 C-8.66 40 -9.32 40 -10 40 C-10 28.78 -10 17.56 -10 6 C-9.34 6 -8.68 6 -8 6 C-8 5.34 -8 4.68 -8 4 C-7.34 4 -6.68 4 -6 4 C-6 3.34 -6 2.68 -6 2 C-4.02 2 -2.04 2 0 2 C0 1.34 0 0.68 0 0 Z " fill="#1795B4" transform="translate(856,374)"/>
<path d="M0 0 C0.66 0 1.32 0 2 0 C2 0.66 2 1.32 2 2 C16.52 2 31.04 2 46 2 C46 2.66 46 3.32 46 4 C46.66 4 47.32 4 48 4 C48 7.3 48 10.6 48 14 C43.38 14 38.76 14 34 14 C34 14.66 34 15.32 34 16 C32.02 16 30.04 16 28 16 C28 25.9 28 35.8 28 46 C26.02 46 24.04 46 22 46 C22 46.66 22 47.32 22 48 C20.02 48 18.04 48 16 48 C16.33 47.34 16.66 46.68 17 46 C18.485 46.495 18.485 46.495 20 47 C20 46.34 20 45.68 20 45 C21.32 44.34 22.64 43.68 24 43 C24 32.77 24 22.54 24 12 C30.6 12.33 37.2 12.66 44 13 C44 10.36 44 7.72 44 5 C43.44852295 5.16226074 42.8970459 5.32452148 42.32885742 5.49169922 C39.73320079 6.0582321 37.39499188 6.12954901 34.73828125 6.1328125 C33.70888428 6.13474609 32.6794873 6.13667969 31.61889648 6.13867188 C30.52778564 6.13416016 29.4366748 6.12964844 28.3125 6.125 C27.20011963 6.12306641 26.08773926 6.12113281 24.94165039 6.11914062 C15.93307734 6.0723867 6.98044051 5.69175333 -2 5 C-2 4.34 -2 3.68 -2 3 C-2.99 3 -3.98 3 -5 3 C-5 6.3 -5 9.6 -5 13 C0.61 13 6.22 13 12 13 C12 13.33 12 13.66 12 14 C6.06 14 0.12 14 -6 14 C-6 10.04 -6 6.08 -6 2 C-4.02 2 -2.04 2 0 2 C0 1.34 0 0.68 0 0 Z " fill="#0B849C" transform="translate(742,372)"/>
<path d="M0 0 C0.66 0 1.32 0 2 0 C2 0.66 2 1.32 2 2 C3.32 2 4.64 2 6 2 C6 3.32 6 4.64 6 6 C6.66 6 7.32 6 8 6 C8 9.96 8 13.92 8 18 C7.34 18 6.68 18 6 18 C5.67 18.66 5.34 19.32 5 20 C5.33 17.69 5.66 15.38 6 13 C5.34 13 4.68 13 4 13 C3.5978125 11.2984375 3.5978125 11.2984375 3.1875 9.5625 C2.795625 8.386875 2.40375 7.21125 2 6 C1.01 5.67 0.02 5.34 -1 5 C-6.38939246 12.26396375 -5.13333769 22.42575051 -5.0625 31.0625 C-5.05798828 32.11888672 -5.05347656 33.17527344 -5.04882812 34.26367188 C-5.03715934 36.84247288 -5.0192285 39.42124428 -5 42 C-1.37 41.34 2.26 40.68 6 40 C5.505 38.515 5.505 38.515 5 37 C4.96045766 34.66700175 4.95598268 32.33291811 5 30 C5.33 31.32 5.66 32.64 6 34 C6.66 34 7.32 34 8 34 C8 36.64 8 39.28 8 42 C7.34 42 6.68 42 6 42 C6 43.32 6 44.64 6 46 C1.38 46 -3.24 46 -8 46 C-8 31.48 -8 16.96 -8 2 C-5.36 2 -2.72 2 0 2 C0 1.34 0 0.68 0 0 Z " fill="#17C2E5" transform="translate(908,372)"/>
<path d="M0 0 C4.62 0 9.24 0 14 0 C14 15.18 14 30.36 14 46 C13.34 46 12.68 46 12 46 C12 45.34 12 44.68 12 44 C10.02 44 8.04 44 6 44 C6 44.66 6 45.32 6 46 C4.68 46 3.36 46 2 46 C2 45.34 2 44.68 2 44 C1.34 44 0.68 44 0 44 C0 42.68 0 41.36 0 40 C-0.66 40 -1.32 40 -2 40 C-2 36.04 -2 32.08 -2 28 C-1.67 28.66 -1.34 29.32 -1 30 C0.32 30.66 1.64 31.32 3 32 C3 34.97 3 37.94 3 41 C3.66 41 4.32 41 5 41 C5 41.66 5 42.32 5 43 C7.64 43 10.28 43 13 43 C12.89171875 41.21722656 12.89171875 41.21722656 12.78125 39.3984375 C12.04875106 26.58688738 11.89023411 13.83041295 12 1 C8.7 1.33 5.4 1.66 2 2 C1.67 6.95 1.34 11.9 1 17 C0.01 17 -0.98 17 -2 17 C-2 17.66 -2 18.32 -2 19 C-2.55985596 18.99476318 -3.11971191 18.98952637 -3.6965332 18.98413086 C-6.23517737 18.96333309 -8.77380359 18.95033096 -11.3125 18.9375 C-12.63411133 18.92493164 -12.63411133 18.92493164 -13.98242188 18.91210938 C-14.82998047 18.90888672 -15.67753906 18.90566406 -16.55078125 18.90234375 C-17.33106689 18.89710693 -18.11135254 18.89187012 -18.9152832 18.88647461 C-21.1961555 18.91862137 -21.1961555 18.91862137 -24 20 C-26.1875 19.0625 -26.1875 19.0625 -28 18 C-26.68 18 -25.36 18 -24 18 C-24 17.34 -24 16.68 -24 16 C-22.02 16 -20.04 16 -18 16 C-18 16.66 -18 17.32 -18 18 C-14.04 18 -10.08 18 -6 18 C-6 17.34 -6 16.68 -6 16 C-4.68 16 -3.36 16 -2 16 C-2 12.7 -2 9.4 -2 6 C-1.34 6 -0.68 6 0 6 C0 4.02 0 2.04 0 0 Z " fill="#155967" transform="translate(942,374)"/>
<path d="M0 0 C13.86 0 27.72 0 42 0 C42 0.66 42 1.32 42 2 C42.66 2 43.32 2 44 2 C44 3.98 44 5.96 44 8 C44.66 8 45.32 8 46 8 C46 8.66 46 9.32 46 10 C45.34 10 44.68 10 44 10 C44 10.66 44 11.32 44 12 C42.02 12 40.04 12 38 12 C38 12.66 38 13.32 38 14 C28.76 14 19.52 14 10 14 C10 14.66 10 15.32 10 16 C20.56 16 31.12 16 42 16 C42 16.33 42 16.66 42 17 C37.17619198 17.0246519 32.35242033 17.04283693 27.52856445 17.05493164 C25.88630536 17.05997174 24.24405077 17.06680378 22.60180664 17.07543945 C20.24624521 17.08751926 17.89074291 17.09323139 15.53515625 17.09765625 C14.79660904 17.10281754 14.05806183 17.10797882 13.2971344 17.11329651 C11.53101912 17.1134925 9.76502854 17.06194719 8 17 C7.67 16.67 7.34 16.34 7 16 C7 14.35 7 12.7 7 11 C18.88 11 30.76 11 43 11 C42.505 8.525 42.505 8.525 42 6 C41.34 5.67 40.68 5.34 40 5 C40 4.34 40 3.68 40 3 C20.2 2.505 20.2 2.505 0 2 C0 1.34 0 0.68 0 0 Z " fill="#0F6B84" transform="translate(798,374)"/>
<path d="M0 0 C0.66 0 1.32 0 2 0 C2 13.53 2 27.06 2 41 C19.49 41 36.98 41 55 41 C55 38.36 55 35.72 55 33 C46.09 33 37.18 33 28 33 C28 32.67 28 32.34 28 32 C37.24 32 46.48 32 56 32 C56 32.66 56 33.32 56 34 C56.66 34 57.32 34 58 34 C58 35.98 58 37.96 58 40 C57.34 40 56.68 40 56 40 C56 40.66 56 41.32 56 42 C37.52 42 19.04 42 0 42 C0 28.14 0 14.28 0 0 Z " fill="#312F34" transform="translate(344,376)"/>
<path d="M0 0 C0.66 0.33 1.32 0.66 2 1 C1.67620361 1.86729736 1.35240723 2.73459473 1.01879883 3.62817383 C-0.58952137 8.95108546 -0.32827156 14.16429809 -0.3125 19.6875 C-0.32861328 20.82767578 -0.34472656 21.96785156 -0.36132812 23.14257812 C-0.36197266 24.23376953 -0.36261719 25.32496094 -0.36328125 26.44921875 C-0.36626221 27.44268311 -0.36924316 28.43614746 -0.37231445 29.4597168 C-0.19247749 32.00955068 -0.19247749 32.00955068 1.25195312 33.78979492 C3.34336283 35.23771642 4.81521989 35.57361658 7.33203125 35.9140625 C8.20327637 36.03483154 9.07452148 36.15560059 9.97216797 36.2800293 C10.90947754 36.39386963 11.84678711 36.50770996 12.8125 36.625 C13.77559082 36.74979736 14.73868164 36.87459473 15.73095703 37.00317383 C26.12165977 38.27109197 36.54187385 38.72333808 47 39 C47 37.35 47 35.7 47 34 C47.33 34 47.66 34 48 34 C48 35.98 48 37.96 48 40 C40.08 40 32.16 40 24 40 C24 40.66 24 41.32 24 42 C20.7 42 17.4 42 14 42 C14 41.34 14 40.68 14 40 C11.36 40 8.72 40 6 40 C6 39.34 6 38.68 6 38 C4.02 38 2.04 38 0 38 C0 37.34 0 36.68 0 36 C-0.66 36 -1.32 36 -2 36 C-2 24.78 -2 13.56 -2 2 C-1.34 2 -0.68 2 0 2 C0 1.34 0 0.68 0 0 Z " fill="#1197AE" transform="translate(848,378)"/>
<path d="M0 0 C1.32 0.33 2.64 0.66 4 1 C4 3.31 4 5.62 4 8 C15.22 8 26.44 8 38 8 C38 8.66 38 9.32 38 10 C36.02 10.99 36.02 10.99 34 12 C34 11.34 34 10.68 34 10 C24.76 10 15.52 10 6 10 C6 10.66 6 11.32 6 12 C3.36 12 0.72 12 -2 12 C-2 11.34 -2 10.68 -2 10 C-2.66 10 -3.32 10 -4 10 C-4 9.34 -4 8.68 -4 8 C-4.66 8 -5.32 8 -6 8 C-6 6.68 -6 5.36 -6 4 C-5.34 4 -4.68 4 -4 4 C-4 3.34 -4 2.68 -4 2 C-2.68 2 -1.36 2 0 2 C0 1.34 0 0.68 0 0 Z " fill="#090A14" transform="translate(276,376)"/>
<path d="M0 0 C1.37478516 0.01740234 1.37478516 0.01740234 2.77734375 0.03515625 C3.69644531 0.04417969 4.61554687 0.05320312 5.5625 0.0625 C6.27277344 0.07410156 6.98304688 0.08570313 7.71484375 0.09765625 C8.91514283 2.49825442 8.82944118 3.99126274 8.8125 6.66796875 C8.80927734 7.56386719 8.80605469 8.45976562 8.80273438 9.3828125 C8.79016602 10.78853516 8.79016602 10.78853516 8.77734375 12.22265625 C8.77283203 13.16753906 8.76832031 14.11242187 8.76367188 15.0859375 C8.75186732 17.42324012 8.73540134 19.76041686 8.71484375 22.09765625 C8.38484375 22.09765625 8.05484375 22.09765625 7.71484375 22.09765625 C7.71484375 16.81765625 7.71484375 11.53765625 7.71484375 6.09765625 C7.05484375 6.09765625 6.39484375 6.09765625 5.71484375 6.09765625 C5.71484375 5.43765625 5.71484375 4.77765625 5.71484375 4.09765625 C4.39484375 3.76765625 3.07484375 3.43765625 1.71484375 3.09765625 C0.36392847 5.7994868 0.37626317 8.21573831 0.15234375 11.22265625 C0.06855469 12.31835938 -0.01523437 13.4140625 -0.1015625 14.54296875 C-0.19244141 15.80753906 -0.19244141 15.80753906 -0.28515625 17.09765625 C-3.80343253 18.6901102 -6.51212977 19.34027007 -10.3671875 19.29296875 C-11.29853516 19.28652344 -12.22988281 19.28007812 -13.18945312 19.2734375 C-14.14916016 19.25667969 -15.10886719 19.23992187 -16.09765625 19.22265625 C-17.07669922 19.21363281 -18.05574219 19.20460938 -19.06445312 19.1953125 C-21.47160686 19.17182807 -23.87825368 19.13898465 -26.28515625 19.09765625 C-25.29515625 17.61265625 -25.29515625 17.61265625 -24.28515625 16.09765625 C-24.28515625 16.75765625 -24.28515625 17.41765625 -24.28515625 18.09765625 C-18.34515625 18.09765625 -12.40515625 18.09765625 -6.28515625 18.09765625 C-6.28515625 17.43765625 -6.28515625 16.77765625 -6.28515625 16.09765625 C-5.29515625 16.09765625 -4.30515625 16.09765625 -3.28515625 16.09765625 C-3.29675781 15.02644531 -3.30835938 13.95523437 -3.3203125 12.8515625 C-3.32968924 11.45442882 -3.33878956 10.05729326 -3.34765625 8.66015625 C-3.35603516 7.95310547 -3.36441406 7.24605469 -3.37304688 6.51757812 C-3.38169213 4.71072066 -3.33735636 2.90378022 -3.28515625 1.09765625 C-2.28515625 0.09765625 -2.28515625 0.09765625 0 0 Z " fill="#15C8E6" transform="translate(946.28515625,374.90234375)"/>
<path d="M0 0 C0.66 0 1.32 0 2 0 C2 0.66 2 1.32 2 2 C3.32 2 4.64 2 6 2 C6 3.32 6 4.64 6 6 C6.66 6 7.32 6 8 6 C8 9.96 8 13.92 8 18 C7.34 18 6.68 18 6 18 C5.67 18.66 5.34 19.32 5 20 C5.33 17.69 5.66 15.38 6 13 C5.34 13 4.68 13 4 13 C3.67 9.7 3.34 6.4 3 3 C-1.455 3.495 -1.455 3.495 -6 4 C-6.33 17.53 -6.66 31.06 -7 45 C-3.04 45 0.92 45 5 45 C5.33 44.34 5.66 43.68 6 43 C6 43.99 6 44.98 6 46 C1.38 46 -3.24 46 -8 46 C-8 31.48 -8 16.96 -8 2 C-5.36 2 -2.72 2 0 2 C0 1.34 0 0.68 0 0 Z " fill="#074E61" transform="translate(908,372)"/>
<path d="M0 0 C1.20446777 0.01047363 2.40893555 0.02094727 3.64990234 0.03173828 C5.60283203 0.04140625 5.60283203 0.04140625 7.59521484 0.05126953 C8.9754258 0.06798149 10.35563413 0.08491139 11.73583984 0.10205078 C13.12385436 0.11208072 14.51187574 0.12120655 15.89990234 0.12939453 C19.3037201 0.15303215 22.70719491 0.18598211 26.11083984 0.22705078 C26.11083984 0.55705078 26.11083984 0.88705078 26.11083984 1.22705078 C20.83591551 2.10504347 15.76610886 2.38019531 10.42333984 2.35205078 C9.67761719 2.35591797 8.93189453 2.35978516 8.16357422 2.36376953 C4.64144838 2.35748563 1.4980254 2.17412724 -1.88916016 1.22705078 C-1.55916016 2.87705078 -1.22916016 4.52705078 -0.88916016 6.22705078 C10.33083984 6.55705078 21.55083984 6.88705078 33.11083984 7.22705078 C33.11083984 7.88705078 33.11083984 8.54705078 33.11083984 9.22705078 C20.57083984 9.22705078 8.03083984 9.22705078 -4.88916016 9.22705078 C-4.88916016 0.38422502 -4.88916016 0.38422502 0 0 Z " fill="#16BCD7" transform="translate(806.88916015625,383.77294921875)"/>
<path d="M0 0 C0.99 0.33 1.98 0.66 3 1 C3 2.98 3 4.96 3 7 C2.34 7 1.68 7 1 7 C1 7.66 1 8.32 1 9 C-8.24 9 -17.48 9 -27 9 C-27 10.32 -27 11.64 -27 13 C-19.41 13 -11.82 13 -4 13 C-4 13.33 -4 13.66 -4 14 C-8.08255655 14.22601462 -12.16596075 14.42774673 -16.25 14.625 C-17.98830078 14.72167969 -17.98830078 14.72167969 -19.76171875 14.8203125 C-20.87675781 14.871875 -21.99179687 14.9234375 -23.140625 14.9765625 C-24.68024902 15.05511475 -24.68024902 15.05511475 -26.25097656 15.13525391 C-29.06966869 14.99657225 -30.61827763 14.45992606 -33 13 C-33 12.34 -33 11.68 -33 11 C-32.34 11 -31.68 11 -31 11 C-31 11.66 -31 12.32 -31 13 C-30.34 13 -29.68 13 -29 13 C-29 11.68 -29 10.36 -29 9 C-30.32 8.67 -31.64 8.34 -33 8 C-22.44 8 -11.88 8 -1 8 C-0.67 5.36 -0.34 2.72 0 0 Z " fill="#0E4A5B" transform="translate(839,393)"/>
<path d="M0 0 C0.99 0 1.98 0 3 0 C3 2.64 3 5.28 3 8 C2.34 8 1.68 8 1 8 C1 8.66 1 9.32 1 10 C-7.58 10 -16.16 10 -25 10 C-25 10.66 -25 11.32 -25 12 C-27.64 12 -30.28 12 -33 12 C-33 18.27 -33 24.54 -33 31 C-35 29 -35 29 -35.22705078 27.12060547 C-35.21657715 26.37697754 -35.20610352 25.63334961 -35.1953125 24.8671875 C-35.18886719 24.06152344 -35.18242188 23.25585938 -35.17578125 22.42578125 C-35.15064453 21.16314453 -35.15064453 21.16314453 -35.125 19.875 C-35.11597656 19.02550781 -35.10695313 18.17601562 -35.09765625 17.30078125 C-35.07405647 15.20040116 -35.03818483 13.10016556 -35 11 C-32.36 11 -29.72 11 -27 11 C-27 10.34 -27 9.68 -27 9 C-18.09 8.67 -9.18 8.34 0 8 C0 5.36 0 2.72 0 0 Z " fill="#063549" transform="translate(895,376)"/>
<path d="M0 0 C13.86 0 27.72 0 42 0 C42 0.66 42 1.32 42 2 C28.8 2 15.6 2 2 2 C2 3.98 2 5.96 2 8 C1.34 8 0.68 8 0 8 C0 5.36 0 2.72 0 0 Z " fill="#1E1E26" transform="translate(358,384)"/>
<path d="M0 0 C0.33 0 0.66 0 1 0 C1 3.3 1 6.6 1 10 C-10.88 10 -22.76 10 -35 10 C-35 11.98 -35 13.96 -35 16 C-35.66 16 -36.32 16 -37 16 C-37 13.36 -37 10.72 -37 8 C-24.79 8 -12.58 8 0 8 C0 5.36 0 2.72 0 0 Z " fill="#141636" transform="translate(395,392)"/>
<path d="M0 0 C1.98 0 3.96 0 6 0 C6 2.64 6 5.28 6 8 C5.34 8 4.68 8 4 8 C4 9.32 4 10.64 4 12 C-5.24 12 -14.48 12 -24 12 C-24 12.66 -24 13.32 -24 14 C-25.98 14 -27.96 14 -30 14 C-30 13.34 -30 12.68 -30 12 C-33.96 12 -37.92 12 -42 12 C-41.67 11.34 -41.34 10.68 -41 10 C-19.22 10.495 -19.22 10.495 3 11 C3.01512945 2.59866609 3.01512945 2.59866609 0 0 Z " fill="#024354" transform="translate(838,406)"/>
<path d="M0 0 C2.64 0 5.28 0 8 0 C8 0.66 8 1.32 8 2 C6.02 2 4.04 2 2 2 C2 11.9 2 21.8 2 32 C0.02 32 -1.96 32 -4 32 C-4 32.66 -4 33.32 -4 34 C-5.98 34 -7.96 34 -10 34 C-9.67 33.34 -9.34 32.68 -9 32 C-8.01 32.33 -7.02 32.66 -6 33 C-6 32.34 -6 31.68 -6 31 C-4.02 31 -2.04 31 0 31 C0 20.77 0 10.54 0 0 Z " fill="#01121C" transform="translate(768,386)"/>
<path d="M0 0 C8.91 0 17.82 0 27 0 C27.33 1.65 27.66 3.3 28 5 C27.34 5 26.68 5 26 5 C26 4.34 26 3.68 26 3 C17.09 3 8.18 3 -1 3 C-0.67 2.01 -0.34 1.02 0 0 Z " fill="#12A7C0" transform="translate(915,399)"/>
<path d="M0 0 C2.36194588 3.68648808 2.17466401 6.82687527 2.0625 11.125 C1.7542614 15.7267846 1.7542614 15.7267846 3 20 C14.88 20.33 26.76 20.66 39 21 C38.67 22.32 38.34 23.64 38 25 C38 24.01 38 23.02 38 22 C36.92516357 22.01047363 35.85032715 22.02094727 34.74291992 22.03173828 C30.75662565 22.06792779 26.77034592 22.09089663 22.78393555 22.10986328 C21.05832477 22.11992326 19.33273105 22.13357276 17.60717773 22.15087891 C15.1273986 22.17512754 12.64784477 22.18648301 10.16796875 22.1953125 C9.39599655 22.20563507 8.62402435 22.21595764 7.82865906 22.22659302 C4.00718524 22.22739422 2.25863893 22.17242595 -1 20 C-1.24922317 17.10723111 -1.32624578 14.44792629 -1.25 11.5625 C-1.24484375 10.78583984 -1.2396875 10.00917969 -1.234375 9.20898438 C-1.18884821 5.90544673 -1.05046877 3.1514063 0 0 Z " fill="#1AA4BF" transform="translate(859,387)"/>
<path d="M0 0 C12.87 0 25.74 0 39 0 C39 0.33 39 0.66 39 1 C37.91468994 1.02505615 36.82937988 1.0501123 35.71118164 1.07592773 C31.698684 1.16983755 27.68636618 1.27009767 23.67407227 1.37231445 C21.93485712 1.41572573 20.19559765 1.45739612 18.45629883 1.49731445 C15.96161512 1.55486768 13.4671559 1.6186042 10.97265625 1.68359375 C10.19036148 1.70030624 9.40806671 1.71701874 8.60206604 1.73423767 C5.00128219 1.50648731 5.00128219 1.50648731 2 3 C1.83970312 5.95529504 1.74042672 8.88982457 1.68359375 11.84765625 C1.66281265 12.7340831 1.64203156 13.62050995 1.62062073 14.53379822 C1.555026 17.376617 1.49619448 20.21953117 1.4375 23.0625 C1.3943242 24.98503606 1.35071022 26.90756234 1.30664062 28.83007812 C1.19933457 33.55328668 1.09809549 38.27659153 1 43 C0.67 43 0.34 43 0 43 C0 28.81 0 14.62 0 0 Z " fill="#A7A8A9" transform="translate(346,374)"/>
<path d="M0 0 C0.33 0 0.66 0 1 0 C1 4.29 1 8.58 1 13 C0.01 13 -0.98 13 -2 13 C-2 13.66 -2 14.32 -2 15 C-2.55985596 14.99476318 -3.11971191 14.98952637 -3.6965332 14.98413086 C-6.23517737 14.96333309 -8.77380359 14.95033096 -11.3125 14.9375 C-12.19357422 14.92912109 -13.07464844 14.92074219 -13.98242188 14.91210938 C-14.82998047 14.90888672 -15.67753906 14.90566406 -16.55078125 14.90234375 C-17.33106689 14.89710693 -18.11135254 14.89187012 -18.9152832 14.88647461 C-21.1961555 14.91862137 -21.1961555 14.91862137 -24 16 C-26.1875 15.0625 -26.1875 15.0625 -28 14 C-26.68 14 -25.36 14 -24 14 C-24 13.34 -24 12.68 -24 12 C-22.02 12 -20.04 12 -18 12 C-18 12.66 -18 13.32 -18 14 C-14.04 14 -10.08 14 -6 14 C-6 13.34 -6 12.68 -6 12 C-4.68 12 -3.36 12 -2 12 C-2 8.7 -2 5.4 -2 2 C-1.34 2 -0.68 2 0 2 C0 1.34 0 0.68 0 0 Z " fill="#1E7788" transform="translate(942,378)"/>
<path d="M0 0 C0.66 0 1.32 0 2 0 C2 8.58 2 17.16 2 26 C2.66 26 3.32 26 4 26 C4.66 27.65 5.32 29.3 6 31 C4.02 30.67 2.04 30.34 0 30 C0 20.1 0 10.2 0 0 Z " fill="#0F7590" transform="translate(756,388)"/>
<path d="M0 0 C0.33 0 0.66 0 1 0 C1 3.3 1 6.6 1 10 C-6.26 10 -13.52 10 -21 10 C-20.67 11.98 -20.34 13.96 -20 16 C-19.98526222 18.01857897 -20.02754645 20.03822347 -20.12109375 22.0546875 C-20.16943359 23.16328125 -20.21777344 24.271875 -20.26757812 25.4140625 C-20.32365234 26.55617188 -20.37972656 27.69828125 -20.4375 28.875 C-20.48970703 30.0403125 -20.54191406 31.205625 -20.59570312 32.40625 C-20.72485797 35.27113925 -20.85980182 38.13563347 -21 41 C-21.99 40.67 -22.98 40.34 -24 40 C-23.505 39.505 -23.505 39.505 -23 39 C-22.91209025 36.70848583 -22.89305962 34.41427476 -22.90234375 32.12109375 C-22.90446617 31.09110008 -22.90446617 31.09110008 -22.90663147 30.04029846 C-22.91224521 27.83932199 -22.92479993 25.63844591 -22.9375 23.4375 C-22.94251324 21.94856917 -22.94707645 20.45963676 -22.95117188 18.97070312 C-22.96136979 15.31373195 -22.98094221 11.65697883 -23 8 C-15.41 8.33 -7.82 8.66 0 9 C0 6.03 0 3.06 0 0 Z " fill="#168B9F" transform="translate(789,376)"/>
<path d="M0 0 C0 1.65 0 3.3 0 5 C-2.31 5.33 -4.62 5.66 -7 6 C-7 5.34 -7 4.68 -7 4 C-7.51046875 4.17402344 -8.0209375 4.34804688 -8.546875 4.52734375 C-11.87024065 5.16767376 -14.88250735 4.84312439 -18.25 4.5625 C-19.51328125 4.46066406 -20.7765625 4.35882813 -22.078125 4.25390625 C-23.04234375 4.17011719 -24.0065625 4.08632813 -25 4 C-25 3.67 -25 3.34 -25 3 C-21.535 2.505 -21.535 2.505 -18 2 C-18 1.67 -18 1.34 -18 1 C-11.97968656 0.39034801 -6.05329744 -0.13451772 0 0 Z " fill="#04CEEF" transform="translate(840,409)"/>
<path d="M0 0 C0.99 0 1.98 0 3 0 C3 0.99 3 1.98 3 3 C2.34 3 1.68 3 1 3 C1 4.65 1 6.3 1 8 C-2.49998201 8.02934711 -5.99993179 8.04691445 -9.5 8.0625 C-10.97339844 8.07506836 -10.97339844 8.07506836 -12.4765625 8.08789062 C-18.08674757 8.10659124 -23.45150899 7.838879 -29 7 C-28.67 6.34 -28.34 5.68 -28 5 C-23.89584811 4.97101903 -19.79172247 4.9532078 -15.6875 4.9375 C-14.52025391 4.92912109 -13.35300781 4.92074219 -12.15039062 4.91210938 C-10.47299805 4.90727539 -10.47299805 4.90727539 -8.76171875 4.90234375 C-7.73006592 4.89710693 -6.69841309 4.89187012 -5.63549805 4.88647461 C-3 5 -3 5 0 6 C0 4.02 0 2.04 0 0 Z " fill="#14C6E2" transform="translate(894,409)"/>
<path d="M0 0 C-0.78375 0.556875 -1.5675 1.11375 -2.375 1.6875 C-5.14033933 4.12363227 -5.85979312 5.57937935 -7 9 C-7.99 10.485 -7.99 10.485 -9 12 C-9.27599951 14.61601555 -9.27599951 14.61601555 -9.1953125 17.54296875 C-9.18886719 18.61611328 -9.18242188 19.68925781 -9.17578125 20.79492188 C-9.15902344 21.91447266 -9.14226563 23.03402344 -9.125 24.1875 C-9.11597656 25.31865234 -9.10695313 26.44980469 -9.09765625 27.61523438 C-9.07406862 30.41036828 -9.041153 33.20507845 -9 36 C-9.66 36 -10.32 36 -11 36 C-11.02918634 31.64584756 -11.04686145 27.29172052 -11.0625 22.9375 C-11.07087891 21.70837891 -11.07925781 20.47925781 -11.08789062 19.21289062 C-11.12210201 6.52046808 -11.12210201 6.52046808 -10 2 C-6.3558226 -0.4294516 -4.28758728 -0.16179575 0 0 Z " fill="#0FC7E9" transform="translate(805,376)"/>
<path d="M0 0 C0.66 0.33 1.32 0.66 2 1 C1.01 2.98 0.02 4.96 -1 7 C3.29 7 7.58 7 12 7 C12.66 5.68 13.32 4.36 14 3 C14 4.65 14 6.3 14 8 C2.78 8 -8.44 8 -20 8 C-20 7.67 -20 7.34 -20 7 C-15.38 7 -10.76 7 -6 7 C-6 6.34 -6 5.68 -6 5 C-6.99 5.33 -7.98 5.66 -9 6 C-8.67 4.68 -8.34 3.36 -8 2 C-8 2.66 -8 3.32 -8 4 C-6.68 4 -5.36 4 -4 4 C-4 4.66 -4 5.32 -4 6 C-3.34 6 -2.68 6 -2 6 C-2 4.68 -2 3.36 -2 2 C-1.34 2 -0.68 2 0 2 C0 1.34 0 0.68 0 0 Z " fill="#59565D" transform="translate(662,410)"/>
<path d="M0 0 C0.33 0.66 0.66 1.32 1 2 C2.32 2.66 3.64 3.32 5 4 C5 6.97 5 9.94 5 13 C5.66 13 6.32 13 7 13 C6.67 13.99 6.34 14.98 6 16 C4.68 16 3.36 16 2 16 C2 14.68 2 13.36 2 12 C1.34 12 0.68 12 0 12 C0 8.04 0 4.08 0 0 Z " fill="#1F7491" transform="translate(940,402)"/>
<path d="M0 0 C5.96313166 -0.02464574 11.92623395 -0.042834 17.8894043 -0.05493164 C19.91968298 -0.05997278 21.94995802 -0.06680557 23.98022461 -0.07543945 C26.89177347 -0.08751467 29.8032745 -0.09323034 32.71484375 -0.09765625 C33.6283812 -0.10281754 34.54191864 -0.10797882 35.48313904 -0.11329651 C37.65575427 -0.11349168 39.82827296 -0.06211805 42 0 C43 1 43 1 43.09765625 3.06640625 C43.08605469 3.89011719 43.07445312 4.71382813 43.0625 5.5625 C43.05347656 6.38878906 43.04445313 7.21507812 43.03515625 8.06640625 C43.02355469 8.70449219 43.01195312 9.34257812 43 10 C42.01 10 41.02 10 40 10 C40 7.03 40 4.06 40 1 C26.8 1 13.6 1 0 1 C0 0.67 0 0.34 0 0 Z " fill="#19B7D6" transform="translate(746,375)"/>
<path d="M0 0 C1.73600464 0.08640747 1.73600464 0.08640747 3.50708008 0.17456055 C4.76069336 0.2293457 6.01430664 0.28413086 7.3059082 0.34057617 C9.27140625 0.44982422 9.27140625 0.44982422 11.27661133 0.5612793 C12.61183103 0.62455295 13.94711826 0.68641854 15.2824707 0.74682617 C18.55228046 0.90028295 21.82070723 1.06816779 25.08911133 1.2487793 C25.08911133 1.9087793 25.08911133 2.5687793 25.08911133 3.2487793 C14.85911133 3.2487793 4.62911133 3.2487793 -5.91088867 3.2487793 C-2.91088867 0.2487793 -2.91088867 0.2487793 0 0 Z " fill="#24CCE6" transform="translate(812.910888671875,397.751220703125)"/>
<path d="M0 0 C1.2375 0.185625 2.475 0.37125 3.75 0.5625 C6.76279577 0.94711223 9.10010827 1.0874594 12 0 C12.33 0.99 12.66 1.98 13 3 C28.345 2.505 28.345 2.505 44 2 C43.67 2.66 43.34 3.32 43 4 C37.67979978 4.07429915 32.35990331 4.12867247 27.03930664 4.16479492 C25.23033383 4.17985755 23.4213974 4.20031177 21.61254883 4.22631836 C19.00853485 4.2628132 16.4050048 4.27975157 13.80078125 4.29296875 C12.99538406 4.30845261 12.18998688 4.32393646 11.36018372 4.33988953 C6.74613071 4.34126446 3.76545766 3.98191057 0 1 C0 0.67 0 0.34 0 0 Z " fill="#0FC6E4" transform="translate(796,412)"/>
<path d="M0 0 C2.44989101 3.74235319 2.23086143 7.44225419 2.125 11.75 C2.11597656 12.44738281 2.10695313 13.14476562 2.09765625 13.86328125 C2.07419888 15.57566958 2.03833104 17.28788004 2 19 C-0.64 19 -3.28 19 -6 19 C-6 18.34 -6 17.68 -6 17 C-6.66 17 -7.32 17 -8 17 C-8.06058594 16.40832031 -8.12117187 15.81664062 -8.18359375 15.20703125 C-8.62012371 11.09021792 -9.08671346 7.04455467 -10 3 C-7.95780294 4.69179328 -7.08206694 5.63727666 -6.48828125 8.26171875 C-6.43027344 9.06222656 -6.37226562 9.86273438 -6.3125 10.6875 C-6.24675781 11.49574219 -6.18101562 12.30398438 -6.11328125 13.13671875 C-6.07589844 13.75160156 -6.03851562 14.36648438 -6 15 C-3.69 15.33 -1.38 15.66 1 16 C0.84402344 15.18015625 0.68804688 14.3603125 0.52734375 13.515625 C0.23537109 11.89914062 0.23537109 11.89914062 -0.0625 10.25 C-0.25972656 9.18265625 -0.45695313 8.1153125 -0.66015625 7.015625 C-0.97156937 4.25228095 -0.8991416 2.59053383 0 0 Z " fill="#14CCEC" transform="translate(953,398)"/>
<path d="M0 0 C1.98 0.495 1.98 0.495 4 1 C4 2.65 4 4.3 4 6 C6.98367726 6.99455909 9.2004192 7.19559632 12.32421875 7.31640625 C13.86625977 7.37924805 13.86625977 7.37924805 15.43945312 7.44335938 C17.04723633 7.50233398 17.04723633 7.50233398 18.6875 7.5625 C19.77095703 7.60568359 20.85441406 7.64886719 21.97070312 7.69335938 C24.64700791 7.79946838 27.32340526 7.90152361 30 8 C30 8.33 30 8.66 30 9 C25.72953289 9.19656362 21.45861919 9.38070249 17.1875 9.5625 C15.97255859 9.61857422 14.75761719 9.67464844 13.50585938 9.73242188 C11.76079102 9.80493164 11.76079102 9.80493164 9.98046875 9.87890625 C8.90692139 9.9260376 7.83337402 9.97316895 6.72729492 10.02172852 C4 10 4 10 1 9 C0.67 8.01 0.34 7.02 0 6 C0.33 5.34 0.66 4.68 1 4 C0.34 3.67 -0.32 3.34 -1 3 C-0.67 2.01 -0.34 1.02 0 0 Z " fill="#08ACCF" transform="translate(803,400)"/>
<path d="M0 0 C0.66 0 1.32 0 2 0 C2.93423645 3.01031744 3.04449911 3.86650268 2 7 C7.61 7.33 13.22 7.66 19 8 C19 8.99 19 9.98 19 11 C12.73 10.67 6.46 10.34 0 10 C0 6.7 0 3.4 0 0 Z " fill="#1ACBE8" transform="translate(737,375)"/>
<path d="M0 0 C0.33 1.32 0.66 2.64 1 4 C1.66 4 2.32 4 3 4 C3.36548223 11.43147208 3.36548223 11.43147208 1.875 13.75 C-0.8404871 15.56032474 -2.96261285 15.29152862 -6.1875 15.1875 C-7.27417969 15.16042969 -8.36085938 15.13335937 -9.48046875 15.10546875 C-10.72763672 15.05326172 -10.72763672 15.05326172 -12 15 C-9.5546615 12.03472242 -7.55397653 11.44417786 -3.8125 10.8125 C-2.91144531 10.65394531 -2.01039063 10.49539063 -1.08203125 10.33203125 C-0.39496094 10.22246094 0.29210937 10.11289062 1 10 C0.67 9.01 0.34 8.02 0 7 C-0.03954234 4.66700175 -0.04401732 2.33291811 0 0 Z " fill="#1EC7DF" transform="translate(913,402)"/>
<path d="M0 0 C0.66 0.33 1.32 0.66 2 1 C1.67515625 1.72960937 1.3503125 2.45921875 1.015625 3.2109375 C-0.45212213 8.68676334 -0.28882775 13.98203396 -0.25 19.625 C-0.25773438 20.75679688 -0.26546875 21.88859375 -0.2734375 23.0546875 C-0.27085937 24.14265625 -0.26828125 25.230625 -0.265625 26.3515625 C-0.26336914 27.33979004 -0.26111328 28.32801758 -0.25878906 29.34619141 C0.11926719 33.22305132 1.26847574 35.26847574 4 38 C2.68 38 1.36 38 0 38 C0 37.34 0 36.68 0 36 C-0.66 36 -1.32 36 -2 36 C-2 24.78 -2 13.56 -2 2 C-1.34 2 -0.68 2 0 2 C0 1.34 0 0.68 0 0 Z " fill="#175B6A" transform="translate(848,378)"/>
<path d="M0 0 C-3.35119519 2.23413013 -4.4177755 2.23847762 -8.32421875 2.1953125 C-9.86625977 2.18564453 -9.86625977 2.18564453 -11.43945312 2.17578125 C-12.51130859 2.15902344 -13.58316406 2.14226562 -14.6875 2.125 C-15.77095703 2.11597656 -16.85441406 2.10695313 -17.97070312 2.09765625 C-20.6473571 2.0740734 -23.32356797 2.04116126 -26 2 C-25.67 1.34 -25.34 0.68 -25 0 C-21.77138267 -0.19789024 -18.54210273 -0.38146345 -15.3125 -0.5625 C-14.40048828 -0.61857422 -13.48847656 -0.67464844 -12.54882812 -0.73242188 C-11.21948242 -0.80493164 -11.21948242 -0.80493164 -9.86328125 -0.87890625 C-9.05157471 -0.9260376 -8.23986816 -0.97316895 -7.40356445 -1.02172852 C-4.8210515 -0.99838228 -2.51150091 -0.5804792 0 0 Z " fill="#19D2EB" transform="translate(895,383)"/>
<path d="M0 0 C9.24 0 18.48 0 28 0 C28 0.66 28 1.32 28 2 C28.66 2 29.32 2 30 2 C30 3.98 30 5.96 30 8 C29.01 8.33 28.02 8.66 27 9 C27 6.36 27 3.72 27 1 C18.09 1 9.18 1 0 1 C0 0.67 0 0.34 0 0 Z " fill="#B2ACB1" transform="translate(372,408)"/>
<path d="M0 0 C3.3 0 6.6 0 10 0 C10 0.33 10 0.66 10 1 C7.03 1 4.06 1 1 1 C1 10.24 1 19.48 1 29 C-3 28 -3 28 -5 26 C-3.35 26 -1.7 26 0 26 C0 17.42 0 8.84 0 0 Z " fill="#9A9996" transform="translate(454,374)"/>
<path d="M0 0 C0.66 0 1.32 0 2 0 C1.98952637 1.04454346 1.97905273 2.08908691 1.96826172 3.1652832 C1.93206828 7.03976007 1.90910195 10.91422199 1.89013672 14.78881836 C1.88007763 16.46592725 1.86642878 18.14301861 1.84912109 19.82006836 C1.82486848 22.23035002 1.8135161 24.64039986 1.8046875 27.05078125 C1.79436493 27.80087967 1.78404236 28.55097809 1.77340698 29.32380676 C1.772592 33.10300779 1.84942933 34.77414399 4 38 C2.68 38 1.36 38 0 38 C0 25.46 0 12.92 0 0 Z " fill="#156C83" transform="translate(792,378)"/>
<path d="M0 0 C1 1 1 1 1.09765625 3.06640625 C1.08605469 3.89011719 1.07445312 4.71382813 1.0625 5.5625 C1.05347656 6.38878906 1.04445313 7.21507812 1.03515625 8.06640625 C1.02355469 8.70449219 1.01195312 9.34257812 1 10 C-1.31 10 -3.62 10 -6 10 C-6 9.67 -6 9.34 -6 9 C-4.35 8.67 -2.7 8.34 -1 8 C-0.67 6.02 -0.34 4.04 0 2 C-6.93 1.67 -13.86 1.34 -21 1 C-21 0.67 -21 0.34 -21 0 C-18.43788925 -0.19569589 -15.87567609 -0.38180612 -13.3125 -0.5625 C-12.59126953 -0.61857422 -11.87003906 -0.67464844 -11.12695312 -0.73242188 C-7.23808977 -0.99878238 -3.76374371 -1.08666405 0 0 Z " fill="#29B4CA" transform="translate(840,407)"/>
<path d="M0 0 C2.48046875 1.11328125 2.48046875 1.11328125 5 3 C5.48828125 5.91796875 5.48828125 5.91796875 5.3125 9.1875 C5.26738281 10.27417969 5.22226562 11.36085938 5.17578125 12.48046875 C5.11777344 13.31191406 5.05976562 14.14335937 5 15 C4.34 15 3.68 15 3 15 C2.67 15.66 2.34 16.32 2 17 C2.33 14.69 2.66 12.38 3 10 C2.34 10 1.68 10 1 10 C0.67 6.7 0.34 3.4 0 0 Z " fill="#10A8C2" transform="translate(911,375)"/>
<path d="M0 0 C0.66 0 1.32 0 2 0 C2 0.66 2 1.32 2 2 C2.66 2 3.32 2 4 2 C4.33 1.34 4.66 0.68 5 0 C5.33 0.33 5.66 0.66 6 1 C7.70563778 1.15740605 9.41727244 1.25093392 11.12890625 1.31640625 C12.68061523 1.37924805 12.68061523 1.37924805 14.26367188 1.44335938 C15.35228516 1.48267578 16.44089844 1.52199219 17.5625 1.5625 C18.65498047 1.60568359 19.74746094 1.64886719 20.87304688 1.69335938 C23.58189564 1.79982068 26.29083992 1.90183516 29 2 C29 2.33 29 2.66 29 3 C24.91744345 3.22601462 20.83403925 3.42774673 16.75 3.625 C15.01169922 3.72167969 15.01169922 3.72167969 13.23828125 3.8203125 C12.12324219 3.871875 11.00820313 3.9234375 9.859375 3.9765625 C8.31975098 4.05511475 8.31975098 4.05511475 6.74902344 4.13525391 C3.93033131 3.99657225 2.38172237 3.45992606 0 2 C0 1.34 0 0.68 0 0 Z " fill="#297381" transform="translate(806,404)"/>
<path d="M0 0 C1.32 0.33 2.64 0.66 4 1 C3.67 1.99 3.34 2.98 3 4 C-0.0625 5.1875 -0.0625 5.1875 -3 6 C-2.67 7.32 -2.34 8.64 -2 10 C-2.66 10 -3.32 10 -4 10 C-4 9.34 -4 8.68 -4 8 C-4.66 8 -5.32 8 -6 8 C-6 6.68 -6 5.36 -6 4 C-5.34 4 -4.68 4 -4 4 C-4 3.34 -4 2.68 -4 2 C-2.68 2 -1.36 2 0 2 C0 1.34 0 0.68 0 0 Z " fill="#04071C" transform="translate(276,376)"/>
<path d="M0 0 C1.98 0 3.96 0 6 0 C6 1.65 6 3.3 6 5 C5.67 4.34 5.34 3.68 5 3 C4.34 3 3.68 3 3 3 C3 3.66 3 4.32 3 5 C-1.455 5.495 -1.455 5.495 -6 6 C-6 5.34 -6 4.68 -6 4 C-5.34 4 -4.68 4 -4 4 C-4 3.34 -4 2.68 -4 2 C-2.68 2 -1.36 2 0 2 C0 1.34 0 0.68 0 0 Z " fill="#131214" transform="translate(286,370)"/>
<path d="M0 0 C9.9 0 19.8 0 30 0 C30 0.66 30 1.32 30 2 C28.02 2.99 28.02 2.99 26 4 C26 3.01 26 2.02 26 1 C17.42 1 8.84 1 0 1 C0 0.67 0 0.34 0 0 Z " fill="#2B2C32" transform="translate(284,384)"/>
<path d="M0 0 C2.24993359 -0.02707139 4.49996095 -0.04642829 6.75 -0.0625 C8.00296875 -0.07410156 9.2559375 -0.08570313 10.546875 -0.09765625 C13.28536501 -0.02021027 15.41880293 0.17219185 18 1 C18 1.66 18 2.32 18 3 C14.7 3 11.4 3 8 3 C8 2.34 8 1.68 8 1 C5.36 1 2.72 1 0 1 C0 0.67 0 0.34 0 0 Z " fill="#065360" transform="translate(854,417)"/>
<path d="M0 0 C1.32 0.66 2.64 1.32 4 2 C3.01 2.33 2.02 2.66 1 3 C1 10.92 1 18.84 1 27 C0.34 26.67 -0.32 26.34 -1 26 C-0.67 17.42 -0.34 8.84 0 0 Z " fill="#040307" transform="translate(421,391)"/>
<path d="M0 0 C4.29 0 8.58 0 13 0 C8.78370866 2.10814567 6.60209225 2.17700355 2 2 C2 3.98 2 5.96 2 8 C1.34 8 0.68 8 0 8 C0 5.36 0 2.72 0 0 Z " fill="#2C2A44" transform="translate(358,400)"/>
<path d="M0 0 C5.94 0.33 11.88 0.66 18 1 C18 1.99 18 2.98 18 4 C16.02 4 14.04 4 12 4 C12 3.34 12 2.68 12 2 C8.04 2 4.08 2 0 2 C0 1.34 0 0.68 0 0 Z " fill="#05535E" transform="translate(796,416)"/>
<path d="M0 0 C2.44989101 3.74235319 2.23086143 7.44225419 2.125 11.75 C2.11597656 12.44738281 2.10695313 13.14476562 2.09765625 13.86328125 C2.07419888 15.57566958 2.03833104 17.28788004 2 19 C0.02 19 -1.96 19 -4 19 C-4 18.67 -4 18.34 -4 18 C-2.35 18 -0.7 18 1 18 C0.84402344 17.03578125 0.68804688 16.0715625 0.52734375 15.078125 C0.23537109 13.18320312 0.23537109 13.18320312 -0.0625 11.25 C-0.25972656 9.99703125 -0.45695313 8.7440625 -0.66015625 7.453125 C-0.95080818 4.49983411 -0.98935727 2.7397586 0 0 Z " fill="#1FC5E5" transform="translate(953,398)"/>
<path d="M0 0 C1.98 0 3.96 0 6 0 C6 2.64 6 5.28 6 8 C5.01 8 4.02 8 3 8 C2.814375 6.576875 2.814375 6.576875 2.625 5.125 C2.28312823 1.91332809 2.28312823 1.91332809 0 0 Z " fill="#16555D" transform="translate(838,406)"/>
<path d="M0 0 C0.99 0 1.98 0 3 0 C3 2.64 3 5.28 3 8 C1.02 8.33 -0.96 8.66 -3 9 C-2.01 8.67 -1.02 8.34 0 8 C0 5.36 0 2.72 0 0 Z " fill="#086EA6" transform="translate(895,376)"/>
<path d="M0 0 C0.66 0.33 1.32 0.66 2 1 C2 2.65 2 4.3 2 6 C-0.64 6 -3.28 6 -6 6 C-6.33 5.34 -6.66 4.68 -7 4 C-6.030625 3.71125 -5.06125 3.4225 -4.0625 3.125 C-0.89335797 2.35785318 -0.89335797 2.35785318 0 0 Z " fill="#1DD4EC" transform="translate(839,379)"/>
<path d="M0 0 C2.64 0 5.28 0 8 0 C8 0.33 8 0.66 8 1 C6.3603125 1.4021875 6.3603125 1.4021875 4.6875 1.8125 C1.26833673 2.91358648 0.22408019 3.42474926 -2 6 C-2.66 6 -3.32 6 -4 6 C-4 4.68 -4 3.36 -4 2 C-2.68 2 -1.36 2 0 2 C0 1.34 0 0.68 0 0 Z " fill="#737272" transform="translate(584,374)"/>
<path d="M0 0 C0.33 1.32 0.66 2.64 1 4 C0.34 4 -0.32 4 -1 4 C-1 3.34 -1 2.68 -1 2 C-2.98 2 -4.96 2 -7 2 C-7 2.66 -7 3.32 -7 4 C-8.32 4 -9.64 4 -11 4 C-11 3.34 -11 2.68 -11 2 C-8.70370006 0.85185003 -6.92301914 0.69230191 -4.375 0.4375 C-3.14910156 0.31181641 -3.14910156 0.31181641 -1.8984375 0.18359375 C-0.95871094 0.09271484 -0.95871094 0.09271484 0 0 Z " fill="#01282E" transform="translate(955,416)"/>
<path d="M0 0 C1.32 0.33 2.64 0.66 4 1 C3.24172908 2.17487036 2.46792245 3.33972592 1.6875 4.5 C1.25824219 5.1496875 0.82898438 5.799375 0.38671875 6.46875 C-0.07089844 6.9740625 -0.52851562 7.479375 -1 8 C-1.99 8 -2.98 8 -4 8 C-4 7.34 -4 6.68 -4 6 C-3.34 6 -2.68 6 -2 6 C-2 5.34 -2 4.68 -2 4 C-1.34 4 -0.68 4 0 4 C0 2.68 0 1.36 0 0 Z " fill="#716F70" transform="translate(572,384)"/>
<path d="M0 0 C0.28875 0.61875 0.5775 1.2375 0.875 1.875 C1.93720042 4.13325765 1.93720042 4.13325765 4 6 C3 7 3 7 0.4375 7.0625 C-0.7690625 7.0315625 -0.7690625 7.0315625 -2 7 C-2 5.35 -2 3.7 -2 2 C-1.34 2 -0.68 2 0 2 C0 1.34 0 0.68 0 0 Z " fill="#3C3546" transform="translate(278,380)"/>
<path d="M0 0 C0.99 0.33 1.98 0.66 3 1 C2.67 1.99 2.34 2.98 2 4 C1.34 4 0.68 4 0 4 C0 7.63 0 11.26 0 15 C-0.33 15 -0.66 15 -1 15 C-1.02685412 12.68756208 -1.04632841 10.3750373 -1.0625 8.0625 C-1.07410156 6.77472656 -1.08570313 5.48695313 -1.09765625 4.16015625 C-1 1 -1 1 0 0 Z " fill="#23BDE3" transform="translate(944,375)"/>
<path d="M0 0 C0.99 0.33 1.98 0.66 3 1 C3 2.98 3 4.96 3 7 C1.68 7.33 0.36 7.66 -1 8 C-0.67 5.36 -0.34 2.72 0 0 Z " fill="#167E99" transform="translate(839,393)"/>
<path d="M0 0 C0.33 1.32 0.66 2.64 1 4 C1.66 4 2.32 4 3 4 C3 6.64 3 9.28 3 12 C0.13700494 9.13700494 0.00578775 7.34147716 -0.0625 3.3125 C-0.041875 2.219375 -0.02125 1.12625 0 0 Z " fill="#085368" transform="translate(913,402)"/>
<path d="M0 0 C1.98 0.495 1.98 0.495 4 1 C3.01 1.33 2.02 1.66 1 2 C1.226875 2.763125 1.45375 3.52625 1.6875 4.3125 C1.790625 5.199375 1.89375 6.08625 2 7 C1.01 7.99 0.02 8.98 -1 10 C-0.67 6.7 -0.34 3.4 0 0 Z " fill="#16A1BF" transform="translate(794,376)"/>
<path d="M0 0 C0.66 0 1.32 0 2 0 C2 3.96 2 7.92 2 12 C1.34 12 0.68 12 0 12 C-0.33 12.66 -0.66 13.32 -1 14 C-0.7525 13.0409375 -0.7525 13.0409375 -0.5 12.0625 C0.15932515 8.02413348 0.08003779 4.08192742 0 0 Z " fill="#02101B" transform="translate(914,378)"/>
<path d="M0 0 C4.29 0 8.58 0 13 0 C13 1.32 13 2.64 13 4 C12.34 4 11.68 4 11 4 C10.67 3.34 10.34 2.68 10 2 C7.64400765 1.53248212 7.64400765 1.53248212 4.9375 1.375 C4.01839844 1.30023438 3.09929688 1.22546875 2.15234375 1.1484375 C1.08693359 1.07496094 1.08693359 1.07496094 0 1 C0 0.67 0 0.34 0 0 Z " fill="#18BEDB" transform="translate(930,400)"/>
<path d="M0 0 C2.64 0 5.28 0 8 0 C8 0.66 8 1.32 8 2 C6.02 2 4.04 2 2 2 C1.67 2.99 1.34 3.98 1 5 C0.67 3.35 0.34 1.7 0 0 Z " fill="#095167" transform="translate(768,386)"/>
<path d="M0 0 C1.98 0 3.96 0 6 0 C6 1.65 6 3.3 6 5 C5.401875 4.649375 4.80375 4.29875 4.1875 3.9375 C1.89186786 2.66695302 1.89186786 2.66695302 -1 4 C-0.67 2.68 -0.34 1.36 0 0 Z " fill="#010101" transform="translate(286,370)"/>
<path d="M0 0 C0.66 0 1.32 0 2 0 C2 2.64 2 5.28 2 8 C0.68 7.67 -0.64 7.34 -2 7 C-1.34 4.69 -0.68 2.38 0 0 Z " fill="#0F0F15" transform="translate(336,376)"/>
<path d="M0 0 C0.66 0 1.32 0 2 0 C2 0.66 2 1.32 2 2 C1.34 2 0.68 2 0 2 C0 3.32 0 4.64 0 6 C-0.66 6 -1.32 6 -2 6 C-2 6.66 -2 7.32 -2 8 C-2.66 8 -3.32 8 -4 8 C-2.87548273 5.0280615 -1.77706209 2.66559313 0 0 Z " fill="#181216" transform="translate(692,386)"/>
<path d="M0 0 C1.65 0 3.3 0 5 0 C5 0.99 5 1.98 5 3 C2.36 3 -0.28 3 -3 3 C-2.01 2.67 -1.02 2.34 0 2 C0 1.34 0 0.68 0 0 Z " fill="#15B5D2" transform="translate(863,384)"/>
<path d="M0 0 C2.27521866 2.16687491 4.15794162 4.45620509 6 7 C4.68 7 3.36 7 2 7 C2 6.34 2 5.68 2 5 C1.34 5 0.68 5 0 5 C0 3.35 0 1.7 0 0 Z " fill="#010D16" transform="translate(846,409)"/>
<path d="M0 0 C1.98 1.65 3.96 3.3 6 5 C4.68 5.33 3.36 5.66 2 6 C2 5.34 2 4.68 2 4 C1.34 4 0.68 4 0 4 C0 2.68 0 1.36 0 0 Z " fill="#1B1A21" transform="translate(548,388)"/>
<path d="M0 0 C3.3 0.33 6.6 0.66 10 1 C10 1.33 10 1.66 10 2 C7.36 2 4.72 2 2 2 C1.67 2.99 1.34 3.98 1 5 C0.67 3.35 0.34 1.7 0 0 Z " fill="#0AB6D5" transform="translate(766,384)"/>
<path d="M0 0 C0.33 0 0.66 0 1 0 C1.33 2.64 1.66 5.28 2 8 C1.34 8 0.68 8 0 8 C0 7.34 0 6.68 0 6 C-0.66 6 -1.32 6 -2 6 C-2 4.68 -2 3.36 -2 2 C-1.34 2 -0.68 2 0 2 C0 1.34 0 0.68 0 0 Z " fill="#020108" transform="translate(272,378)"/>
<path d="M0 0 C0.66 0 1.32 0 2 0 C2 0.66 2 1.32 2 2 C1.34 2 0.68 2 0 2 C0 1.34 0 0.68 0 0 Z " fill="#000000" transform="translate(864,788)"/>
<path d="M0 0 C0.66 0 1.32 0 2 0 C2 0.66 2 1.32 2 2 C1.34 2 0.68 2 0 2 C0 1.34 0 0.68 0 0 Z " fill="#000000" transform="translate(870,786)"/>
<path d="M0 0 C0.66 0 1.32 0 2 0 C2 0.66 2 1.32 2 2 C1.34 2 0.68 2 0 2 C0 1.34 0 0.68 0 0 Z " fill="#000000" transform="translate(300,786)"/>
<path d="M0 0 C0.66 0 1.32 0 2 0 C2 0.66 2 1.32 2 2 C1.34 2 0.68 2 0 2 C0 1.34 0 0.68 0 0 Z " fill="#000000" transform="translate(762,784)"/>
<path d="M0 0 C0.66 0 1.32 0 2 0 C2 0.66 2 1.32 2 2 C1.34 2 0.68 2 0 2 C0 1.34 0 0.68 0 0 Z " fill="#000000" transform="translate(1116,774)"/>
<path d="M0 0 C0.66 0 1.32 0 2 0 C2 0.66 2 1.32 2 2 C1.34 2 0.68 2 0 2 C0 1.34 0 0.68 0 0 Z " fill="#000000" transform="translate(516,758)"/>
<path d="M0 0 C0.66 0 1.32 0 2 0 C2 0.66 2 1.32 2 2 C1.34 2 0.68 2 0 2 C0 1.34 0 0.68 0 0 Z " fill="#000000" transform="translate(1032,756)"/>
<path d="M0 0 C0.66 0 1.32 0 2 0 C2 0.66 2 1.32 2 2 C1.34 2 0.68 2 0 2 C0 1.34 0 0.68 0 0 Z " fill="#000000" transform="translate(486,748)"/>
<path d="M0 0 C0.66 0 1.32 0 2 0 C2 0.66 2 1.32 2 2 C1.34 2 0.68 2 0 2 C0 1.34 0 0.68 0 0 Z " fill="#000000" transform="translate(1104,734)"/>
<path d="M0 0 C0.66 0 1.32 0 2 0 C2 0.66 2 1.32 2 2 C1.34 2 0.68 2 0 2 C0 1.34 0 0.68 0 0 Z " fill="#000000" transform="translate(576,734)"/>
<path d="M0 0 C0.66 0 1.32 0 2 0 C2 0.66 2 1.32 2 2 C1.34 2 0.68 2 0 2 C0 1.34 0 0.68 0 0 Z " fill="#000000" transform="translate(564,726)"/>
<path d="M0 0 C0.66 0 1.32 0 2 0 C2 0.66 2 1.32 2 2 C1.34 2 0.68 2 0 2 C0 1.34 0 0.68 0 0 Z " fill="#000000" transform="translate(840,698)"/>
<path d="M0 0 C0.66 0 1.32 0 2 0 C2 0.66 2 1.32 2 2 C1.34 2 0.68 2 0 2 C0 1.34 0 0.68 0 0 Z " fill="#000000" transform="translate(1116,694)"/>
<path d="M0 0 C0.66 0 1.32 0 2 0 C2 0.66 2 1.32 2 2 C1.34 2 0.68 2 0 2 C0 1.34 0 0.68 0 0 Z " fill="#000000" transform="translate(1140,690)"/>
<path d="M0 0 C0.66 0 1.32 0 2 0 C2 0.66 2 1.32 2 2 C1.34 2 0.68 2 0 2 C0 1.34 0 0.68 0 0 Z " fill="#000000" transform="translate(672,680)"/>
<path d="M0 0 C0.66 0 1.32 0 2 0 C2 0.66 2 1.32 2 2 C1.34 2 0.68 2 0 2 C0 1.34 0 0.68 0 0 Z " fill="#000000" transform="translate(426,674)"/>
<path d="M0 0 C0.66 0 1.32 0 2 0 C2 0.66 2 1.32 2 2 C1.34 2 0.68 2 0 2 C0 1.34 0 0.68 0 0 Z " fill="#000000" transform="translate(750,670)"/>
<path d="M0 0 C0.66 0 1.32 0 2 0 C2 0.66 2 1.32 2 2 C1.34 2 0.68 2 0 2 C0 1.34 0 0.68 0 0 Z " fill="#000000" transform="translate(840,660)"/>
<path d="M0 0 C0.66 0 1.32 0 2 0 C2 0.66 2 1.32 2 2 C1.34 2 0.68 2 0 2 C0 1.34 0 0.68 0 0 Z " fill="#000000" transform="translate(480,658)"/>
<path d="M0 0 C0.66 0 1.32 0 2 0 C2 0.66 2 1.32 2 2 C1.34 2 0.68 2 0 2 C0 1.34 0 0.68 0 0 Z " fill="#000000" transform="translate(264,658)"/>
<path d="M0 0 C0.66 0 1.32 0 2 0 C2 0.66 2 1.32 2 2 C1.34 2 0.68 2 0 2 C0 1.34 0 0.68 0 0 Z " fill="#000000" transform="translate(984,654)"/>
<path d="M0 0 C0.66 0 1.32 0 2 0 C2 0.66 2 1.32 2 2 C1.34 2 0.68 2 0 2 C0 1.34 0 0.68 0 0 Z " fill="#000000" transform="translate(1152,652)"/>
<path d="M0 0 C0.66 0 1.32 0 2 0 C2 0.66 2 1.32 2 2 C1.34 2 0.68 2 0 2 C0 1.34 0 0.68 0 0 Z " fill="#000000" transform="translate(426,652)"/>
<path d="M0 0 C0.66 0 1.32 0 2 0 C2 0.66 2 1.32 2 2 C1.34 2 0.68 2 0 2 C0 1.34 0 0.68 0 0 Z " fill="#000000" transform="translate(492,642)"/>
<path d="M0 0 C0.66 0 1.32 0 2 0 C2 0.66 2 1.32 2 2 C1.34 2 0.68 2 0 2 C0 1.34 0 0.68 0 0 Z " fill="#000000" transform="translate(312,630)"/>
<path d="M0 0 C0.66 0 1.32 0 2 0 C2 0.66 2 1.32 2 2 C1.34 2 0.68 2 0 2 C0 1.34 0 0.68 0 0 Z " fill="#000000" transform="translate(474,626)"/>
<path d="M0 0 C0.66 0 1.32 0 2 0 C2 0.66 2 1.32 2 2 C1.34 2 0.68 2 0 2 C0 1.34 0 0.68 0 0 Z " fill="#000000" transform="translate(882,606)"/>
<path d="M0 0 C0.66 0 1.32 0 2 0 C2 0.66 2 1.32 2 2 C1.34 2 0.68 2 0 2 C0 1.34 0 0.68 0 0 Z " fill="#000000" transform="translate(1188,584)"/>
<path d="M0 0 C0.66 0 1.32 0 2 0 C2 0.66 2 1.32 2 2 C1.34 2 0.68 2 0 2 C0 1.34 0 0.68 0 0 Z " fill="#000000" transform="translate(366,568)"/>
<path d="M0 0 C0.66 0 1.32 0 2 0 C2 0.66 2 1.32 2 2 C1.34 2 0.68 2 0 2 C0 1.34 0 0.68 0 0 Z " fill="#000000" transform="translate(450,556)"/>
<path d="M0 0 C0.66 0 1.32 0 2 0 C2 0.66 2 1.32 2 2 C1.34 2 0.68 2 0 2 C0 1.34 0 0.68 0 0 Z " fill="#000000" transform="translate(858,554)"/>
<path d="M0 0 C0.66 0 1.32 0 2 0 C2 0.66 2 1.32 2 2 C1.34 2 0.68 2 0 2 C0 1.34 0 0.68 0 0 Z " fill="#000000" transform="translate(726,546)"/>
<path d="M0 0 C0.66 0 1.32 0 2 0 C2 0.66 2 1.32 2 2 C1.34 2 0.68 2 0 2 C0 1.34 0 0.68 0 0 Z " fill="#000000" transform="translate(42,532)"/>
<path d="M0 0 C0.66 0 1.32 0 2 0 C2 0.66 2 1.32 2 2 C1.34 2 0.68 2 0 2 C0 1.34 0 0.68 0 0 Z " fill="#000000" transform="translate(876,518)"/>
<path d="M0 0 C0.66 0 1.32 0 2 0 C2 0.66 2 1.32 2 2 C1.34 2 0.68 2 0 2 C0 1.34 0 0.68 0 0 Z " fill="#000000" transform="translate(36,512)"/>
<path d="M0 0 C0.66 0 1.32 0 2 0 C2 0.66 2 1.32 2 2 C1.34 2 0.68 2 0 2 C0 1.34 0 0.68 0 0 Z " fill="#000000" transform="translate(960,500)"/>
<path d="M0 0 C0.66 0 1.32 0 2 0 C2 0.66 2 1.32 2 2 C1.34 2 0.68 2 0 2 C0 1.34 0 0.68 0 0 Z " fill="#000000" transform="translate(450,492)"/>
<path d="M0 0 C0.66 0 1.32 0 2 0 C2 0.66 2 1.32 2 2 C1.34 2 0.68 2 0 2 C0 1.34 0 0.68 0 0 Z " fill="#000000" transform="translate(354,488)"/>
<path d="M0 0 C0.66 0 1.32 0 2 0 C2 0.66 2 1.32 2 2 C1.34 2 0.68 2 0 2 C0 1.34 0 0.68 0 0 Z " fill="#000000" transform="translate(390,482)"/>
<path d="M0 0 C0.66 0 1.32 0 2 0 C2 0.66 2 1.32 2 2 C1.34 2 0.68 2 0 2 C0 1.34 0 0.68 0 0 Z " fill="#000000" transform="translate(1056,458)"/>
<path d="M0 0 C0.66 0 1.32 0 2 0 C2 0.66 2 1.32 2 2 C1.34 2 0.68 2 0 2 C0 1.34 0 0.68 0 0 Z " fill="#000000" transform="translate(102,446)"/>
<path d="M0 0 C0.66 0 1.32 0 2 0 C2 0.66 2 1.32 2 2 C1.34 2 0.68 2 0 2 C0 1.34 0 0.68 0 0 Z " fill="#000000" transform="translate(720,442)"/>
<path d="M0 0 C0.66 0 1.32 0 2 0 C2 0.66 2 1.32 2 2 C1.34 2 0.68 2 0 2 C0 1.34 0 0.68 0 0 Z " fill="#000000" transform="translate(294,434)"/>
<path d="M0 0 C0.66 0 1.32 0 2 0 C2 0.66 2 1.32 2 2 C1.34 2 0.68 2 0 2 C0 1.34 0 0.68 0 0 Z " fill="#000000" transform="translate(390,432)"/>
<path d="M0 0 C0.66 0 1.32 0 2 0 C2 0.66 2 1.32 2 2 C1.34 2 0.68 2 0 2 C0 1.34 0 0.68 0 0 Z " fill="#000000" transform="translate(240,430)"/>
<path d="M0 0 C0.66 0 1.32 0 2 0 C2 0.66 2 1.32 2 2 C1.34 2 0.68 2 0 2 C0 1.34 0 0.68 0 0 Z " fill="#000000" transform="translate(1158,410)"/>
<path d="M0 0 C0.66 0 1.32 0 2 0 C2 0.66 2 1.32 2 2 C1.34 2 0.68 2 0 2 C0 1.34 0 0.68 0 0 Z " fill="#000000" transform="translate(240,404)"/>
<path d="M0 0 C0.66 0 1.32 0 2 0 C2 0.66 2 1.32 2 2 C1.34 2 0.68 2 0 2 C0 1.34 0 0.68 0 0 Z " fill="#000000" transform="translate(264,372)"/>
<path d="M0 0 C0.66 0 1.32 0 2 0 C2 0.66 2 1.32 2 2 C1.34 2 0.68 2 0 2 C0 1.34 0 0.68 0 0 Z " fill="#000000" transform="translate(186,372)"/>
<path d="M0 0 C0.66 0 1.32 0 2 0 C2 0.66 2 1.32 2 2 C1.34 2 0.68 2 0 2 C0 1.34 0 0.68 0 0 Z " fill="#000000" transform="translate(114,352)"/>
<path d="M0 0 C0.66 0 1.32 0 2 0 C2 0.66 2 1.32 2 2 C1.34 2 0.68 2 0 2 C0 1.34 0 0.68 0 0 Z " fill="#000000" transform="translate(1194,344)"/>
<path d="M0 0 C0.66 0 1.32 0 2 0 C2 0.66 2 1.32 2 2 C1.34 2 0.68 2 0 2 C0 1.34 0 0.68 0 0 Z " fill="#000000" transform="translate(474,328)"/>
<path d="M0 0 C0.66 0 1.32 0 2 0 C2 0.66 2 1.32 2 2 C1.34 2 0.68 2 0 2 C0 1.34 0 0.68 0 0 Z " fill="#000000" transform="translate(1044,322)"/>
<path d="M0 0 C0.66 0 1.32 0 2 0 C2 0.66 2 1.32 2 2 C1.34 2 0.68 2 0 2 C0 1.34 0 0.68 0 0 Z " fill="#000000" transform="translate(282,318)"/>
<path d="M0 0 C0.66 0 1.32 0 2 0 C2 0.66 2 1.32 2 2 C1.34 2 0.68 2 0 2 C0 1.34 0 0.68 0 0 Z " fill="#000000" transform="translate(312,280)"/>
<path d="M0 0 C0.66 0 1.32 0 2 0 C2 0.66 2 1.32 2 2 C1.34 2 0.68 2 0 2 C0 1.34 0 0.68 0 0 Z " fill="#000000" transform="translate(882,258)"/>
<path d="M0 0 C0.66 0 1.32 0 2 0 C2 0.66 2 1.32 2 2 C1.34 2 0.68 2 0 2 C0 1.34 0 0.68 0 0 Z " fill="#000000" transform="translate(294,258)"/>
<path d="M0 0 C0.66 0 1.32 0 2 0 C2 0.66 2 1.32 2 2 C1.34 2 0.68 2 0 2 C0 1.34 0 0.68 0 0 Z " fill="#000000" transform="translate(876,256)"/>
<path d="M0 0 C0.66 0 1.32 0 2 0 C2 0.66 2 1.32 2 2 C1.34 2 0.68 2 0 2 C0 1.34 0 0.68 0 0 Z " fill="#000000" transform="translate(1170,228)"/>
<path d="M0 0 C0.66 0 1.32 0 2 0 C2 0.66 2 1.32 2 2 C1.34 2 0.68 2 0 2 C0 1.34 0 0.68 0 0 Z " fill="#000000" transform="translate(120,202)"/>
<path d="M0 0 C0.66 0 1.32 0 2 0 C2 0.66 2 1.32 2 2 C1.34 2 0.68 2 0 2 C0 1.34 0 0.68 0 0 Z " fill="#000000" transform="translate(684,196)"/>
<path d="M0 0 C0.66 0 1.32 0 2 0 C2 0.66 2 1.32 2 2 C1.34 2 0.68 2 0 2 C0 1.34 0 0.68 0 0 Z " fill="#000000" transform="translate(264,192)"/>
<path d="M0 0 C0.66 0 1.32 0 2 0 C2 0.66 2 1.32 2 2 C1.34 2 0.68 2 0 2 C0 1.34 0 0.68 0 0 Z " fill="#000000" transform="translate(936,186)"/>
<path d="M0 0 C0.66 0 1.32 0 2 0 C2 0.66 2 1.32 2 2 C1.34 2 0.68 2 0 2 C0 1.34 0 0.68 0 0 Z " fill="#000000" transform="translate(696,186)"/>
<path d="M0 0 C0.66 0 1.32 0 2 0 C2 0.66 2 1.32 2 2 C1.34 2 0.68 2 0 2 C0 1.34 0 0.68 0 0 Z " fill="#000000" transform="translate(1194,178)"/>
<path d="M0 0 C0.66 0 1.32 0 2 0 C2 0.66 2 1.32 2 2 C1.34 2 0.68 2 0 2 C0 1.34 0 0.68 0 0 Z " fill="#000000" transform="translate(1134,160)"/>
<path d="M0 0 C0.66 0 1.32 0 2 0 C2 0.66 2 1.32 2 2 C1.34 2 0.68 2 0 2 C0 1.34 0 0.68 0 0 Z " fill="#000000" transform="translate(720,128)"/>
<path d="M0 0 C0.66 0 1.32 0 2 0 C2 0.66 2 1.32 2 2 C1.34 2 0.68 2 0 2 C0 1.34 0 0.68 0 0 Z " fill="#000000" transform="translate(942,110)"/>
<path d="M0 0 C0.66 0 1.32 0 2 0 C2 0.66 2 1.32 2 2 C1.34 2 0.68 2 0 2 C0 1.34 0 0.68 0 0 Z " fill="#000000" transform="translate(1188,102)"/>
<path d="M0 0 C0.66 0 1.32 0 2 0 C2 0.66 2 1.32 2 2 C1.34 2 0.68 2 0 2 C0 1.34 0 0.68 0 0 Z " fill="#000000" transform="translate(1080,92)"/>
<path d="M0 0 C0.66 0 1.32 0 2 0 C2 0.66 2 1.32 2 2 C1.34 2 0.68 2 0 2 C0 1.34 0 0.68 0 0 Z " fill="#000000" transform="translate(498,78)"/>
<path d="M0 0 C0.66 0 1.32 0 2 0 C2 0.66 2 1.32 2 2 C1.34 2 0.68 2 0 2 C0 1.34 0 0.68 0 0 Z " fill="#000000" transform="translate(810,60)"/>
<path d="M0 0 C0.66 0 1.32 0 2 0 C2 0.66 2 1.32 2 2 C1.34 2 0.68 2 0 2 C0 1.34 0 0.68 0 0 Z " fill="#000000" transform="translate(1188,56)"/>
<path d="M0 0 C0.66 0 1.32 0 2 0 C2 0.66 2 1.32 2 2 C1.34 2 0.68 2 0 2 C0 1.34 0 0.68 0 0 Z " fill="#000000" transform="translate(1206,50)"/>
<path d="M0 0 C0.66 0 1.32 0 2 0 C2 0.66 2 1.32 2 2 C1.34 2 0.68 2 0 2 C0 1.34 0 0.68 0 0 Z " fill="#000000" transform="translate(588,36)"/>
<path d="M0 0 C0.66 0 1.32 0 2 0 C2 0.66 2 1.32 2 2 C1.34 2 0.68 2 0 2 C0 1.34 0 0.68 0 0 Z " fill="#000000" transform="translate(606,12)"/>
</svg>
